<svg width="255" height="74" viewBox="0 0 255 74" fill="none" xmlns="http://www.w3.org/2000/svg">
<path d="M253.584 65.1712C253.584 69.097 250.337 72.2769 246.322 72.2769H8.68793C4.67462 72.2769 1.41699 69.097 1.41699 65.1712V8.50516C1.41699 4.58123 4.67462 1.39014 8.68793 1.39014H246.32C250.337 1.39014 253.582 4.58123 253.582 8.50516L253.584 65.1712Z" fill="black"/>
<path d="M245.556 1.47547C249.928 1.47547 253.487 4.94472 253.487 9.20817V64.4582C253.487 68.7216 249.928 72.1909 245.556 72.1909H9.44444C5.07167 72.1909 1.51347 68.7216 1.51347 64.4582V9.20817C1.51347 4.94472 5.07167 1.47547 9.44444 1.47547H245.556ZM245.556 -0.000159655H9.44444C4.25236 -0.000159655 0 4.14589 0 9.20817V64.4582C0 69.5205 4.25236 73.6665 9.44444 73.6665H245.556C250.748 73.6665 255 69.5205 255 64.4582V9.20817C255 4.14589 250.748 -0.000159655 245.556 -0.000159655Z" fill="#A6A6A6"/>
<path d="M56.9081 36.4351C56.8533 30.4994 61.8928 27.6117 62.1233 27.4772C59.2692 23.42 54.8454 22.8657 53.2908 22.8215C49.5754 22.4403 45.9714 24.9892 44.0787 24.9892C42.1483 24.9892 39.2337 22.8583 36.0925 22.921C32.0503 22.9817 28.2687 25.2636 26.1947 28.8069C21.9145 36.0318 25.1067 46.649 29.2075 52.4889C31.2588 55.349 33.6558 58.5425 36.7933 58.4301C39.8627 58.3067 41.0093 56.5222 44.7134 56.5222C48.3835 56.5222 49.4602 58.4301 52.66 58.3583C55.9542 58.3067 58.0282 55.4853 60.0077 52.5994C62.3783 49.3212 63.3303 46.0928 63.3681 45.9271C63.2906 45.9013 56.9704 43.5495 56.9081 36.4351Z" fill="white"/>
<path d="M50.8636 18.9798C52.5145 16.9669 53.6441 14.2283 53.3305 11.4492C50.9411 11.5524 47.9528 13.0607 46.2321 15.0294C44.7096 16.7643 43.3496 19.6078 43.701 22.2819C46.3851 22.4771 49.141 20.9614 50.8636 18.9798Z" fill="white"/>
<path d="M101.329 58.0196H97.0394L94.6896 50.8206H86.5221L84.2838 58.0196H80.1074L88.1994 33.5107H93.1974L101.329 58.0196ZM93.9813 47.8002L91.8563 41.4004C91.6315 40.7467 91.2103 39.207 90.5889 36.7834H90.5133C90.2659 37.8258 89.8673 39.3654 89.3195 41.4004L87.2323 47.8002H93.9813Z" fill="white"/>
<path d="M122.139 48.9662C122.139 51.9718 121.306 54.3475 119.64 56.0916C118.148 57.6441 116.295 58.4195 114.083 58.4195C111.695 58.4195 109.98 57.5833 108.935 55.9111H108.86V65.2207H104.833V46.165C104.833 44.2755 104.782 42.3362 104.684 40.3472H108.225L108.45 43.1484H108.526C109.869 41.0378 111.907 39.9844 114.642 39.9844C116.78 39.9844 118.565 40.8076 119.993 42.4559C121.425 44.106 122.139 46.2755 122.139 48.9662ZM118.036 49.1098C118.036 47.3897 117.639 45.9716 116.842 44.8556C115.972 43.6917 114.802 43.1097 113.337 43.1097C112.343 43.1097 111.44 43.4338 110.634 44.0729C109.825 44.7175 109.296 45.5591 109.049 46.6015C108.924 47.0877 108.862 47.4855 108.862 47.7986V50.7452C108.862 52.0307 109.266 53.1155 110.074 54.0013C110.883 54.8871 111.933 55.3291 113.225 55.3291C114.742 55.3291 115.922 54.7582 116.767 53.6201C117.613 52.4801 118.036 50.9773 118.036 49.1098Z" fill="white"/>
<path d="M142.987 48.9662C142.987 51.9718 142.154 54.3475 140.486 56.0916C138.996 57.6441 137.143 58.4195 134.931 58.4195C132.543 58.4195 130.828 57.5833 129.786 55.9111H129.71V65.2207H125.683V46.165C125.683 44.2755 125.632 42.3362 125.534 40.3472H129.075L129.3 43.1484H129.376C130.717 41.0378 132.755 39.9844 135.492 39.9844C137.628 39.9844 139.413 40.8076 140.845 42.4559C142.271 44.106 142.987 46.2755 142.987 48.9662ZM138.884 49.1098C138.884 47.3897 138.486 45.9716 137.689 44.8556C136.818 43.6917 135.652 43.1097 134.185 43.1097C133.189 43.1097 132.288 43.4338 131.48 44.0729C130.671 44.7175 130.144 45.5591 129.897 46.6015C129.774 47.0877 129.71 47.4855 129.71 47.7986V50.7452C129.71 52.0307 130.114 53.1155 130.919 54.0013C131.727 54.8853 132.778 55.3291 134.073 55.3291C135.59 55.3291 136.771 54.7582 137.615 53.6201C138.461 52.4801 138.884 50.9773 138.884 49.1098Z" fill="white"/>
<path d="M166.296 51.1468C166.296 53.2315 165.554 54.9277 164.064 56.2371C162.426 57.6681 160.146 58.3827 157.216 58.3827C154.512 58.3827 152.343 57.8744 150.702 56.8559L151.635 53.5833C153.403 54.6257 155.343 55.1487 157.456 55.1487C158.973 55.1487 160.154 54.8135 161.002 54.1469C161.846 53.4802 162.267 52.5851 162.267 51.4691C162.267 50.4746 161.92 49.6366 161.223 48.957C160.53 48.2775 159.372 47.6458 157.755 47.062C153.354 45.4616 151.155 43.1171 151.155 40.0342C151.155 38.0194 151.926 36.3674 153.469 35.0819C155.006 33.7946 157.058 33.1519 159.623 33.1519C161.91 33.1519 163.811 33.5404 165.327 34.3158L164.321 37.5166C162.904 36.7652 161.302 36.3895 159.51 36.3895C158.093 36.3895 156.986 36.7302 156.193 37.4079C155.522 38.0139 155.186 38.7524 155.186 39.6272C155.186 40.5959 155.569 41.397 156.34 42.0268C157.011 42.6088 158.229 43.2387 159.997 43.9182C162.16 44.7672 163.748 45.7599 164.77 46.8981C165.788 48.0325 166.296 49.4524 166.296 51.1468Z" fill="white"/>
<path d="M179.611 43.2939H175.172V51.8743C175.172 54.0566 175.954 55.1469 177.522 55.1469C178.241 55.1469 178.838 55.0861 179.311 54.9646L179.422 57.9462C178.629 58.2354 177.584 58.3809 176.29 58.3809C174.7 58.3809 173.457 57.9076 172.56 56.9628C171.666 56.0162 171.217 54.4287 171.217 52.1984V43.2903H168.572V40.3436H171.217V37.1078L175.172 35.9438V40.3436H179.611V43.2939Z" fill="white"/>
<path d="M199.638 49.0381C199.638 51.7546 198.841 53.9848 197.251 55.7289C195.583 57.5245 193.369 58.4196 190.61 58.4196C187.95 58.4196 185.833 57.5595 184.253 55.8394C182.674 54.1193 181.885 51.948 181.885 49.3309C181.885 46.5924 182.697 44.3492 184.327 42.6052C185.953 40.8593 188.148 39.9863 190.908 39.9863C193.568 39.9863 195.708 40.8464 197.323 42.5683C198.868 44.2387 199.638 46.3953 199.638 49.0381ZM195.46 49.1652C195.46 47.5353 195.103 46.1375 194.38 44.9717C193.535 43.561 192.328 42.8575 190.764 42.8575C189.146 42.8575 187.916 43.5628 187.072 44.9717C186.348 46.1393 185.991 47.5593 185.991 49.2389C185.991 50.8687 186.348 52.2666 187.072 53.4305C187.942 54.8412 189.159 55.5447 190.729 55.5447C192.266 55.5447 193.473 54.8265 194.344 53.3937C195.086 52.2058 195.46 50.7932 195.46 49.1652Z" fill="white"/>
<path d="M212.729 43.8003C212.33 43.7285 211.905 43.6917 211.46 43.6917C210.043 43.6917 208.947 44.2128 208.177 45.2571C207.506 46.1779 207.17 47.3418 207.17 48.747V58.0198H203.145L203.182 45.9127C203.182 43.8758 203.131 42.0213 203.031 40.349H206.539L206.686 43.7303H206.798C207.223 42.5682 207.893 41.6327 208.811 40.931C209.708 40.2993 210.678 39.9844 211.722 39.9844C212.094 39.9844 212.43 40.0102 212.729 40.0562V43.8003Z" fill="white"/>
<path d="M230.738 48.3473C230.738 49.0508 230.691 49.6439 230.591 50.1282H218.51C218.557 51.8741 219.141 53.2093 220.263 54.1302C221.281 54.9534 222.597 55.3659 224.214 55.3659C226.003 55.3659 227.635 55.0878 229.103 54.5298L229.733 57.2555C228.018 57.9848 225.993 58.3476 223.657 58.3476C220.846 58.3476 218.64 57.5409 217.034 55.9295C215.433 54.318 214.63 52.154 214.63 49.4394C214.63 46.7745 215.376 44.5553 216.87 42.7855C218.434 40.8959 220.548 39.9512 223.207 39.9512C225.82 39.9512 227.797 40.8959 229.14 42.7855C230.204 44.2865 230.738 46.1429 230.738 48.3473ZM226.898 47.3289C226.925 46.165 226.662 45.1594 226.116 44.3104C225.419 43.2183 224.348 42.6732 222.907 42.6732C221.59 42.6732 220.519 43.2054 219.702 44.2736C219.031 45.1226 218.632 46.141 218.51 47.327H226.898V47.3289Z" fill="white"/>
<path d="M92.6499 18.4331C92.6499 20.6007 91.9831 22.2325 90.6515 23.3283C89.418 24.3393 87.6651 24.8458 85.3947 24.8458C84.2689 24.8458 83.3056 24.7979 82.499 24.7021V12.8584C83.5511 12.6926 84.6845 12.6079 85.9085 12.6079C88.0713 12.6079 89.7014 13.0665 90.8007 13.9836C92.0323 15.0205 92.6499 16.503 92.6499 18.4331ZM90.5627 18.4865C90.5627 17.0813 90.1811 16.0039 89.418 15.2525C88.6549 14.503 87.5405 14.1273 86.0728 14.1273C85.4495 14.1273 84.9187 14.1678 84.4786 14.2525V23.2564C84.7222 23.2933 85.168 23.3098 85.8159 23.3098C87.3308 23.3098 88.5 22.8991 89.3236 22.0778C90.1471 21.2564 90.5627 20.0593 90.5627 18.4865Z" fill="white"/>
<path d="M103.717 20.3257C103.717 21.6609 103.326 22.7548 102.544 23.613C101.724 24.4952 100.638 24.9354 99.2815 24.9354C97.9744 24.9354 96.9336 24.5136 96.1573 23.6664C95.3828 22.8211 94.9956 21.7548 94.9956 20.4693C94.9956 19.1249 95.3942 18.0217 96.195 17.1654C96.9959 16.309 98.0726 15.8799 99.4288 15.8799C100.736 15.8799 101.786 16.3016 102.581 17.1469C103.337 17.9683 103.717 19.0291 103.717 20.3257ZM101.663 20.3883C101.663 19.5872 101.486 18.9002 101.133 18.3275C100.717 17.635 100.126 17.2888 99.3571 17.2888C98.5618 17.2888 97.9574 17.635 97.5418 18.3275C97.1867 18.9002 97.0111 19.5982 97.0111 20.4233C97.0111 21.2244 97.1886 21.9113 97.5418 22.4841C97.9706 23.1766 98.5675 23.5228 99.3382 23.5228C100.094 23.5228 100.687 23.171 101.114 22.4657C101.48 21.8819 101.663 21.1894 101.663 20.3883Z" fill="white"/>
<path d="M118.556 16.0571L115.77 24.7387H113.957L112.803 20.9689C112.51 20.0278 112.272 19.0922 112.087 18.164H112.051C111.879 19.118 111.641 20.0517 111.335 20.9689L110.109 24.7387H108.275L105.655 16.0571H107.69L108.696 20.1843C108.94 21.1604 109.14 22.0904 109.301 22.9707H109.337C109.484 22.2451 109.728 21.3206 110.071 20.2027L111.335 16.059H112.948L114.159 20.1143C114.452 21.1033 114.69 22.0554 114.873 22.9726H114.928C115.062 22.0794 115.264 21.1272 115.532 20.1143L116.613 16.059H118.556V16.0571Z" fill="white"/>
<path d="M128.818 24.7385H126.839V19.766C126.839 18.2337 126.242 17.4676 125.044 17.4676C124.457 17.4676 123.983 17.6775 123.614 18.0992C123.25 18.521 123.065 19.0182 123.065 19.5873V24.7366H121.085V18.5376C121.085 17.7751 121.06 16.9482 121.013 16.0532H122.753L122.845 17.4105H122.9C123.131 16.9887 123.474 16.6406 123.926 16.3626C124.462 16.0384 125.063 15.8745 125.72 15.8745C126.551 15.8745 127.243 16.136 127.792 16.6609C128.476 17.3036 128.818 18.2632 128.818 19.5376V24.7385Z" fill="white"/>
<path d="M134.277 24.7389H132.3V12.0737H134.277V24.7389Z" fill="white"/>
<path d="M145.932 20.3257C145.932 21.6609 145.541 22.7548 144.759 23.613C143.939 24.4952 142.851 24.9354 141.497 24.9354C140.188 24.9354 139.147 24.5136 138.373 23.6664C137.598 22.8211 137.211 21.7548 137.211 20.4693C137.211 19.1249 137.609 18.0217 138.41 17.1654C139.211 16.309 140.288 15.8799 141.642 15.8799C142.951 15.8799 144 16.3016 144.797 17.1469C145.552 17.9683 145.932 19.0291 145.932 20.3257ZM143.877 20.3883C143.877 19.5872 143.699 18.9002 143.346 18.3275C142.932 17.635 142.339 17.2888 141.572 17.2888C140.775 17.2888 140.171 17.635 139.757 18.3275C139.402 18.9002 139.226 19.5982 139.226 20.4233C139.226 21.2244 139.404 21.9113 139.757 22.4841C140.186 23.1766 140.783 23.5228 141.553 23.5228C142.309 23.5228 142.9 23.171 143.327 22.4657C143.695 21.8819 143.877 21.1894 143.877 20.3883Z" fill="white"/>
<path d="M155.512 24.7383H153.735L153.587 23.7383H153.533C152.924 24.5357 152.057 24.9354 150.932 24.9354C150.091 24.9354 149.411 24.672 148.899 24.149C148.434 23.6738 148.202 23.0826 148.202 22.381C148.202 21.3202 148.655 20.5117 149.568 19.9518C150.478 19.3919 151.759 19.1175 153.408 19.1304V18.9684C153.408 17.8247 152.792 17.2538 151.559 17.2538C150.68 17.2538 149.906 17.4692 149.237 17.8965L148.835 16.6294C149.662 16.1303 150.684 15.8799 151.889 15.8799C154.216 15.8799 155.384 17.077 155.384 19.4711V22.6683C155.384 23.5357 155.427 24.2263 155.512 24.7383ZM153.457 21.7548V20.4159C151.273 20.3791 150.182 20.9629 150.182 22.1655C150.182 22.6185 150.306 22.9574 150.561 23.1839C150.816 23.4105 151.141 23.5228 151.528 23.5228C151.963 23.5228 152.369 23.3884 152.739 23.1213C153.111 22.8524 153.34 22.5117 153.425 22.0937C153.446 21.9997 153.457 21.8856 153.457 21.7548Z" fill="white"/>
<path d="M166.76 24.7389H165.004L164.911 23.3447H164.856C164.295 24.4055 163.339 24.9359 161.996 24.9359C160.924 24.9359 160.03 24.5252 159.322 23.7039C158.613 22.8825 158.26 21.8161 158.26 20.5067C158.26 19.1015 158.644 17.9634 159.414 17.0941C160.16 16.2838 161.075 15.8786 162.163 15.8786C163.358 15.8786 164.195 16.2709 164.671 17.0573H164.709V12.0737H166.69V22.4C166.69 23.2453 166.713 24.0243 166.76 24.7389ZM164.709 21.0776V19.6301C164.709 19.3796 164.69 19.177 164.654 19.0223C164.543 18.5582 164.303 18.1678 163.938 17.8529C163.57 17.538 163.126 17.3796 162.614 17.3796C161.876 17.3796 161.298 17.665 160.873 18.2378C160.451 18.8105 160.238 19.5417 160.238 20.4349C160.238 21.2931 160.44 21.9893 160.846 22.5252C161.275 23.0961 161.853 23.3816 162.576 23.3816C163.226 23.3816 163.746 23.144 164.14 22.667C164.522 22.2268 164.709 21.6964 164.709 21.0776Z" fill="white"/>
<path d="M183.69 20.3257C183.69 21.6609 183.299 22.7548 182.517 23.613C181.697 24.4952 180.613 24.9354 179.255 24.9354C177.95 24.9354 176.909 24.5136 176.131 23.6664C175.356 22.8211 174.969 21.7548 174.969 20.4693C174.969 19.1249 175.368 18.0217 176.169 17.1654C176.97 16.309 178.046 15.8799 179.404 15.8799C180.71 15.8799 181.762 16.3016 182.555 17.1469C183.311 17.9683 183.69 19.0291 183.69 20.3257ZM181.639 20.3883C181.639 19.5872 181.461 18.9002 181.108 18.3275C180.691 17.635 180.101 17.2888 179.331 17.2888C178.537 17.2888 177.933 17.635 177.515 18.3275C177.16 18.9002 176.985 19.5982 176.985 20.4233C176.985 21.2244 177.162 21.9113 177.515 22.4841C177.944 23.1766 178.541 23.5228 179.312 23.5228C180.067 23.5228 180.662 23.171 181.089 22.4657C181.454 21.8819 181.639 21.1894 181.639 20.3883Z" fill="white"/>
<path d="M194.334 24.7385H192.356V19.766C192.356 18.2337 191.759 17.4676 190.56 17.4676C189.972 17.4676 189.498 17.6775 189.132 18.0992C188.765 18.521 188.582 19.0182 188.582 19.5873V24.7366H186.601V18.5376C186.601 17.7751 186.578 16.9482 186.531 16.0532H188.269L188.361 17.4105H188.416C188.648 16.9887 188.992 16.6406 189.442 16.3626C189.98 16.0384 190.579 15.8745 191.238 15.8745C192.067 15.8745 192.758 16.136 193.308 16.6609C193.994 17.3036 194.334 18.2632 194.334 19.5376V24.7385Z" fill="white"/>
<path d="M207.656 17.5028H205.477V21.7203C205.477 22.7921 205.864 23.328 206.631 23.328C206.986 23.328 207.28 23.2986 207.513 23.2378L207.564 24.7019C207.173 24.8456 206.659 24.9174 206.026 24.9174C205.244 24.9174 204.636 24.6853 204.196 24.2212C203.754 23.7571 203.535 22.9763 203.535 21.8805V17.5028H202.233V16.0571H203.535V14.4659L205.475 13.895V16.0553H207.654V17.5028H207.656Z" fill="white"/>
<path d="M218.136 24.7389H216.155V19.8032C216.155 18.247 215.558 17.468 214.362 17.468C213.444 17.468 212.817 17.9192 212.473 18.8216C212.415 19.0113 212.381 19.2433 212.381 19.5159V24.737H210.403V12.0737H212.381V17.3059H212.418C213.042 16.3538 213.935 15.8786 215.093 15.8786C215.913 15.8786 216.591 16.1401 217.129 16.665C217.8 17.3188 218.136 18.2912 218.136 19.5767V24.7389Z" fill="white"/>
<path d="M228.947 19.9873C228.947 20.3335 228.92 20.6245 228.873 20.8621H222.936C222.963 21.7203 223.246 22.3741 223.796 22.8271C224.298 23.2323 224.946 23.4349 225.739 23.4349C226.618 23.4349 227.418 23.2986 228.14 23.0242L228.45 24.3649C227.605 24.7222 226.612 24.9008 225.462 24.9008C224.083 24.9008 222.997 24.5049 222.211 23.713C221.421 22.921 221.03 21.8584 221.03 20.525C221.03 19.2156 221.395 18.1253 222.13 17.2561C222.896 16.3279 223.933 15.8638 225.242 15.8638C226.523 15.8638 227.496 16.3279 228.153 17.2561C228.684 17.9927 228.947 18.9044 228.947 19.9873ZM227.058 19.4882C227.073 18.9154 226.942 18.4218 226.674 18.0056C226.33 17.4697 225.807 17.2008 225.099 17.2008C224.453 17.2008 223.926 17.4623 223.524 17.9872C223.195 18.4053 223 18.9044 222.936 19.4882H227.058Z" fill="white"/>
</svg>
