<svg width="253" height="74" viewBox="0 0 253 74" fill="none" xmlns="http://www.w3.org/2000/svg">
<path d="M243.63 74H9.37037C4.21901 74 0 69.8352 0 64.75V9.24992C0 4.16473 4.21901 -9.05725e-05 9.37037 -9.05725e-05H243.63C248.781 -9.05725e-05 253 4.16473 253 9.24992V64.75C253 69.8352 248.781 74 243.63 74Z" fill="black"/>
<path d="M243.63 1.48222C247.968 1.48222 251.498 4.96716 251.498 9.24992V64.75C251.498 69.0327 247.968 72.5177 243.63 72.5177H9.37037C5.03189 72.5177 1.5016 69.0327 1.5016 64.75V9.24992C1.5016 4.96716 5.03189 1.48222 9.37037 1.48222H243.63ZM243.63 -9.05725e-05H9.37037C4.21901 -9.05725e-05 0 4.16473 0 9.24992V64.75C0 69.8352 4.21901 74 9.37037 74H243.63C248.781 74 253 69.8352 253 64.75V9.24992C253 4.16473 248.781 -9.05725e-05 243.63 -9.05725e-05Z" fill="#A6A6A6"/>
<path d="M88.8643 18.9509C88.8643 20.4956 88.3958 21.7328 87.4728 22.6555C86.4116 23.7493 85.0295 24.2997 83.3358 24.2997C81.7171 24.2997 80.3349 23.7401 79.2011 22.637C78.0649 21.5178 77.498 20.1441 77.498 18.5C77.498 16.8558 78.0649 15.4821 79.2011 14.3721C80.3349 13.2598 81.7171 12.7002 83.3358 12.7002C84.1416 12.7002 84.91 12.8644 85.6432 13.1696C86.3741 13.4772 86.9691 13.8934 87.4002 14.4068L86.421 15.3827C85.669 14.5063 84.6453 14.0738 83.3358 14.0738C82.1551 14.0738 81.1314 14.4808 80.2623 15.3018C79.4026 16.125 78.9715 17.1911 78.9715 18.5C78.9715 19.8088 79.4026 20.8841 80.2623 21.7074C81.1314 22.5191 82.1551 22.9353 83.3358 22.9353C84.5891 22.9353 85.6432 22.5191 86.4749 21.6981C87.023 21.1547 87.3346 20.4055 87.4166 19.4481H83.3358V18.1115H88.78C88.8456 18.4005 88.8643 18.6803 88.8643 18.9509Z" fill="white" stroke="white" stroke-width="0.16" stroke-miterlimit="10"/>
<path d="M97.5011 14.3167H92.3872V17.8317H96.9974V19.1683H92.3872V22.6833H97.5011V24.0454H90.9395V12.9546H97.5011V14.3167Z" fill="white" stroke="white" stroke-width="0.16" stroke-miterlimit="10"/>
<path d="M103.596 24.0454H102.148V14.3167H99.0117V12.9546H106.735V14.3167H103.596V24.0454Z" fill="white" stroke="white" stroke-width="0.16" stroke-miterlimit="10"/>
<path d="M112.325 24.0454V12.9546H113.771V24.0454H112.325Z" fill="white" stroke="white" stroke-width="0.16" stroke-miterlimit="10"/>
<path d="M120.177 24.0454H118.741V14.3167H115.593V12.9546H123.326V14.3167H120.177V24.0454Z" fill="white" stroke="white" stroke-width="0.16" stroke-miterlimit="10"/>
<path d="M137.949 22.6185C136.841 23.7401 135.468 24.2997 133.831 24.2997C132.184 24.2997 130.811 23.7401 129.703 22.6185C128.597 21.4993 128.047 20.1256 128.047 18.5C128.047 16.8743 128.597 15.5006 129.703 14.3814C130.811 13.2598 132.184 12.7002 133.831 12.7002C135.459 12.7002 136.832 13.2598 137.94 14.3906C139.055 15.5191 139.605 16.8835 139.605 18.5C139.605 20.1256 139.055 21.4993 137.949 22.6185ZM130.774 21.6889C131.608 22.5191 132.622 22.9353 133.831 22.9353C135.03 22.9353 136.054 22.5191 136.878 21.6889C137.71 20.8587 138.132 19.7926 138.132 18.5C138.132 17.2073 137.71 16.1412 136.878 15.311C136.054 14.4808 135.03 14.0646 133.831 14.0646C132.622 14.0646 131.608 14.4808 130.774 15.311C129.942 16.1412 129.52 17.2073 129.52 18.5C129.52 19.7926 129.942 20.8587 130.774 21.6889Z" fill="white" stroke="white" stroke-width="0.16" stroke-miterlimit="10"/>
<path d="M141.636 24.0454V12.9546H143.393L148.856 21.5802H148.919L148.856 19.4481V12.9546H150.301V24.0454H148.792L143.072 14.9942H143.008L143.072 17.1356V24.0454H141.636Z" fill="white" stroke="white" stroke-width="0.16" stroke-miterlimit="10"/>
<path d="M127.69 40.2422C123.288 40.2422 119.693 43.5491 119.693 48.1116C119.693 52.6372 123.288 55.9788 127.69 55.9788C132.101 55.9788 135.697 52.6372 135.697 48.1116C135.697 43.5491 132.101 40.2422 127.69 40.2422ZM127.69 52.88C125.275 52.88 123.197 50.9121 123.197 48.1116C123.197 45.2742 125.275 43.3409 127.69 43.3409C130.105 43.3409 132.193 45.2742 132.193 48.1116C132.193 50.9121 130.105 52.88 127.69 52.88ZM110.24 40.2422C105.829 40.2422 102.243 43.5491 102.243 48.1116C102.243 52.6372 105.829 55.9788 110.24 55.9788C114.649 55.9788 118.238 52.6372 118.238 48.1116C118.238 43.5491 114.649 40.2422 110.24 40.2422ZM110.24 52.88C107.823 52.88 105.738 50.9121 105.738 48.1116C105.738 45.2742 107.823 43.3409 110.24 43.3409C112.655 43.3409 114.733 45.2742 114.733 48.1116C114.733 50.9121 112.655 52.88 110.24 52.88ZM89.4754 42.6541V45.998H97.5644C97.3278 47.8665 96.6953 49.2401 95.7255 50.1975C94.5448 51.3538 92.7059 52.6372 89.4754 52.6372C84.4974 52.6372 80.5993 48.6713 80.5993 43.7572C80.5993 38.8431 84.4974 34.8772 89.4754 34.8772C92.1671 34.8772 94.1255 35.9155 95.5709 37.2614L97.958 34.9049C95.9363 32.9994 93.247 31.5356 89.4754 31.5356C82.6491 31.5356 76.9121 37.0186 76.9121 43.7572C76.9121 50.4958 82.6491 55.9788 89.4754 55.9788C93.165 55.9788 95.9363 54.7855 98.1149 52.547C100.347 50.3432 101.043 47.2444 101.043 44.7423C101.043 43.9653 100.978 43.2507 100.86 42.6541H89.4754ZM174.385 45.2464C173.727 43.4866 171.696 40.2422 167.559 40.2422C163.459 40.2422 160.046 43.4311 160.046 48.1116C160.046 52.5193 163.424 55.9788 167.952 55.9788C171.614 55.9788 173.727 53.7749 174.596 52.4915L171.878 50.7039C170.972 52.0128 169.737 52.88 167.952 52.88C166.179 52.88 164.907 52.0776 164.092 50.4958L174.753 46.1414L174.385 45.2464ZM163.515 47.8665C163.424 44.8325 165.902 43.2785 167.678 43.2785C169.07 43.2785 170.25 43.9653 170.644 44.9481L163.515 47.8665ZM154.85 55.5001H158.355V32.3751H154.85V55.5001ZM149.111 41.9951H148.994C148.207 41.0747 146.705 40.2422 144.803 40.2422C140.811 40.2422 137.161 43.7017 137.161 48.1371C137.161 52.547 140.811 55.9788 144.803 55.9788C146.705 55.9788 148.207 55.1393 148.994 54.1912H149.111V55.3197C149.111 58.3283 147.483 59.9447 144.857 59.9447C142.716 59.9447 141.387 58.4185 140.839 57.135L137.791 58.3907C138.67 60.4766 140.996 63.0435 144.857 63.0435C148.966 63.0435 152.433 60.657 152.433 54.8503V40.7209H149.111V41.9951ZM145.103 52.88C142.687 52.88 140.666 50.8843 140.666 48.1371C140.666 45.3644 142.687 43.3409 145.103 43.3409C147.483 43.3409 149.359 45.3644 149.359 48.1371C149.359 50.8843 147.483 52.88 145.103 52.88ZM190.793 32.3751H182.411V55.5001H185.906V46.738H190.793C194.674 46.738 198.481 43.9653 198.481 39.5554C198.481 35.1477 194.665 32.3751 190.793 32.3751ZM190.884 43.5213H185.906V35.5917H190.884C193.494 35.5917 194.983 37.7308 194.983 39.5554C194.983 41.3452 193.494 43.5213 190.884 43.5213ZM212.49 40.1982C209.964 40.1982 207.338 41.299 206.258 43.7387L209.36 45.0221C210.028 43.7387 211.255 43.3224 212.553 43.3224C214.366 43.3224 216.205 44.3978 216.233 46.2963V46.5391C215.601 46.1784 214.247 45.6442 212.581 45.6442C209.24 45.6442 205.837 47.4595 205.837 50.8473C205.837 53.9461 208.573 55.9418 211.649 55.9418C214.001 55.9418 215.298 54.8942 216.114 53.6755H216.233V55.4631H219.609V46.5923C219.609 42.4922 216.507 40.1982 212.49 40.1982ZM212.068 52.8708C210.925 52.8708 209.332 52.3111 209.332 50.9121C209.332 49.1222 211.318 48.4354 213.038 48.4354C214.577 48.4354 215.298 48.7707 216.233 49.2124C215.959 51.3538 214.092 52.8708 212.068 52.8708ZM231.907 40.7047L227.89 50.7294H227.77L223.617 40.7047H219.848L226.088 54.7138L222.528 62.5093H226.18L235.796 40.7047H231.907ZM200.402 55.5001H203.906V32.3751H200.402V55.5001Z" fill="white"/>
<path d="M19.5546 13.9467C19.0041 14.5156 18.6855 15.4012 18.6855 16.5482V57.4611C18.6855 58.6081 19.0041 59.4937 19.5546 60.0626L19.6905 60.1875L42.915 37.2706V36.7295L19.6905 13.8126L19.5546 13.9467Z" fill="url(#paint0_linear_498_2718)"/>
<path d="M50.6489 44.9136L42.916 37.2708V36.7296L50.6583 29.0868L50.8316 29.1862L60.0005 34.3362C62.6172 35.7977 62.6172 38.2027 60.0005 39.6734L50.8316 44.8141L50.6489 44.9136Z" fill="url(#paint1_linear_498_2718)"/>
<path d="M50.8326 44.8145L42.917 37.0006L19.5566 60.0632C20.4257 60.9651 21.843 61.0738 23.4547 60.1719L50.8326 44.8145Z" fill="url(#paint2_linear_498_2718)"/>
<path d="M50.8326 29.1861L23.4547 13.8287C21.843 12.9361 20.4257 13.0448 19.5566 13.9467L42.917 37L50.8326 29.1861Z" fill="url(#paint3_linear_498_2718)"/>
<defs>
<linearGradient id="paint0_linear_498_2718" x1="40.8529" y1="57.8871" x2="9.80803" y2="26.4383" gradientUnits="userSpaceOnUse">
<stop stop-color="#00A0FF"/>
<stop offset="0.0066" stop-color="#00A1FF"/>
<stop offset="0.2601" stop-color="#00BEFF"/>
<stop offset="0.5122" stop-color="#00D2FF"/>
<stop offset="0.7604" stop-color="#00DFFF"/>
<stop offset="1" stop-color="#00E3FF"/>
</linearGradient>
<linearGradient id="paint1_linear_498_2718" x1="63.4079" y1="36.9976" x2="18.0611" y2="36.9976" gradientUnits="userSpaceOnUse">
<stop stop-color="#FFE000"/>
<stop offset="0.4087" stop-color="#FFBD00"/>
<stop offset="0.7754" stop-color="#FFA500"/>
<stop offset="1" stop-color="#FF9C00"/>
</linearGradient>
<linearGradient id="paint2_linear_498_2718" x1="46.5283" y1="32.7528" x2="4.42891" y2="-9.89437" gradientUnits="userSpaceOnUse">
<stop stop-color="#FF3A44"/>
<stop offset="1" stop-color="#C31162"/>
</linearGradient>
<linearGradient id="paint3_linear_498_2718" x1="13.6764" y1="73.6741" x2="32.4756" y2="54.6304" gradientUnits="userSpaceOnUse">
<stop stop-color="#32A071"/>
<stop offset="0.0685" stop-color="#2DA771"/>
<stop offset="0.4762" stop-color="#15CF74"/>
<stop offset="0.8009" stop-color="#06E775"/>
<stop offset="1" stop-color="#00F076"/>
</linearGradient>
</defs>
</svg>
