<svg width="754" height="452" viewBox="0 0 754 452" fill="none" xmlns="http://www.w3.org/2000/svg">
<rect x="106.497" width="612.675" height="12.266" fill="#64616D" fill-opacity="0.49"/>
<rect x="106.497" y="439.689" width="612.675" height="12.266" fill="#64616D" fill-opacity="0.49"/>
<rect x="742.39" y="415.157" width="378.359" height="11.6105" transform="rotate(-90 742.39 415.157)" fill="#64616D" fill-opacity="0.49"/>
<rect x="72" y="76" width="39" height="11" transform="rotate(-90 72 76)" fill="#64616D" fill-opacity="0.49"/>
<rect x="72" y="415" width="279" height="11" transform="rotate(-90 72 415)" fill="#64616D" fill-opacity="0.49"/>
<rect x="94.8867" y="12.2661" width="11.6105" height="12.266" fill="#64616D" fill-opacity="0.49"/>
<rect x="83.2695" y="24.532" width="11.6105" height="12.266" fill="#64616D" fill-opacity="0.49"/>
<rect x="60" y="136" width="12" height="12" fill="#64616D" fill-opacity="0.49"/>
<rect x="24" y="148" width="36" height="12" fill="#64616D" fill-opacity="0.49"/>
<rect y="124" width="12" height="12" fill="#64616D" fill-opacity="0.49"/>
<rect x="12" y="136" width="12" height="12" fill="#64616D" fill-opacity="0.49"/>
<rect x="48" y="88" width="12" height="12" fill="#64616D" fill-opacity="0.49"/>
<rect x="60" y="76" width="12" height="12" fill="#64616D" fill-opacity="0.49"/>
<rect y="112" width="24" height="12" fill="#64616D" fill-opacity="0.49"/>
<rect x="24" y="100" width="24" height="12" fill="#64616D" fill-opacity="0.49"/>
<rect x="83.2695" y="415.157" width="11.6105" height="12.266" fill="#64616D" fill-opacity="0.49"/>
<rect x="94.8867" y="427.423" width="11.6105" height="12.266" fill="#64616D" fill-opacity="0.49"/>
<rect x="730.78" y="415.157" width="11.6105" height="12.266" fill="#64616D" fill-opacity="0.49"/>
<rect x="719.17" y="427.423" width="11.6105" height="12.266" fill="#64616D" fill-opacity="0.49"/>
<rect x="719.17" y="12.2661" width="11.6105" height="12.266" fill="#64616D" fill-opacity="0.49"/>
<rect x="730.78" y="24.532" width="11.6105" height="12.266" fill="#64616D" fill-opacity="0.49"/>
</svg>
