<svg width="51" height="38" viewBox="0 0 51 38" fill="none" xmlns="http://www.w3.org/2000/svg">
<path d="M46.3639 21.7143H41.7275V27.1429H46.3639V21.7143Z" fill="white"/>
<path d="M41.7272 27.1429H37.0908V32.5715H41.7272V27.1429Z" fill="white"/>
<path d="M37.0905 21.7143H32.4541V27.1429H37.0905V21.7143Z" fill="white"/>
<path d="M37.0905 10.8571H32.4541V16.2857H37.0905V10.8571Z" fill="white"/>
<path d="M37.0905 16.2857H32.4541V21.7143H37.0905V16.2857Z" fill="white"/>
<path d="M37.0905 5.42859H32.4541V10.8572H37.0905V5.42859Z" fill="white"/>
<path d="M32.4547 0H27.8184V5.42857H32.4547V0Z" fill="white"/>
<path d="M27.818 5.42859H23.1816V10.8572H27.818V5.42859Z" fill="white"/>
<path d="M27.818 10.8571H23.1816V16.2857H27.818V10.8571Z" fill="white"/>
<path d="M27.818 16.2857H23.1816V21.7143H27.818V16.2857Z" fill="white"/>
<path d="M27.818 21.7143H23.1816V27.1429H27.818V21.7143Z" fill="white"/>
<path d="M27.818 27.1429H23.1816V32.5715H27.818V27.1429Z" fill="white"/>
<path d="M23.1823 32.5714H18.5459V38H23.1823V32.5714Z" fill="white"/>
<path d="M18.5455 27.1429H13.9092V32.5715H18.5455V27.1429Z" fill="white"/>
<path d="M50.9996 21.7143H46.3633V27.1429H50.9996V21.7143Z" fill="white"/>
<path d="M18.5455 21.7143H13.9092V27.1429H18.5455V21.7143Z" fill="white"/>
<path d="M13.9088 16.2857H9.27246V21.7143H13.9088V16.2857Z" fill="white"/>
<path d="M9.27308 21.7143H4.63672V27.1429H9.27308V21.7143Z" fill="white"/>
<path d="M4.63636 21.7143H0V27.1429H4.63636V21.7143Z" fill="white"/>
</svg>
