<svg width="1241" height="497" viewBox="0 0 1241 497" fill="none" xmlns="http://www.w3.org/2000/svg">
<g filter="url(#filter0_f_586_1668)">
<path d="M71.3077 211.167C71.3077 211.167 135.873 271.221 187.293 275.059C229.233 278.189 265.606 253.287 304.674 193.533C335.114 146.975 358.794 89.6999 413.224 77.7115C467.655 65.7231 512.317 115.279 536.1 193.533C562.836 281.503 580.6 331.208 646.868 395.401C679.448 426.96 750.367 428.974 795.081 406.464C859.499 374.034 872.91 326.235 921.143 221.49C954.316 149.452 1000.53 97.0309 1051.68 94.5638C1124.07 91.0715 1161.75 133.583 1211.26 225.795C1243.87 286.552 1280.25 343.185 1326.08 360.06" stroke="url(#paint0_radial_586_1668)" stroke-opacity="0.6" stroke-width="30"/>
</g>
<defs>
<filter id="filter0_f_586_1668" x="0.842743" y="0.964844" width="1390.86" height="495.495" filterUnits="userSpaceOnUse" color-interpolation-filters="sRGB">
<feFlood flood-opacity="0" result="BackgroundImageFix"/>
<feBlend mode="normal" in="SourceGraphic" in2="BackgroundImageFix" result="shape"/>
<feGaussianBlur stdDeviation="30" result="effect1_foregroundBlur_586_1668"/>
</filter>
<radialGradient id="paint0_radial_586_1668" cx="0" cy="0" r="1" gradientUnits="userSpaceOnUse" gradientTransform="translate(700.151 418.235) rotate(-0.278273) scale(752.47 2405.95)">
<stop stop-color="#9074FF"/>
<stop offset="0.229167" stop-color="#5730F2"/>
<stop offset="1" stop-color="#747474" stop-opacity="0"/>
</radialGradient>
</defs>
</svg>
