<svg width="32" height="36" viewBox="0 0 32 36" fill="none" xmlns="http://www.w3.org/2000/svg">
<g clip-path="url(#clip0_498_3132)">
<path d="M32 8H28V12H32V8Z" fill="white"/>
<path d="M4 24H0V28H4V24Z" fill="white"/>
<path d="M4 28H0V32H4V28Z" fill="white"/>
<path d="M20 24H16V28H20V24Z" fill="white"/>
<path d="M16 28H12V32H16V28Z" fill="white"/>
<path d="M20 28H16V32H20V28Z" fill="white"/>
<path d="M12 20H8V24H12V20Z" fill="white"/>
<path d="M20 20H16V24H20V20Z" fill="white"/>
<path d="M12 32H8V36H12V32Z" fill="white"/>
<path d="M20 0H16V4H20V0Z" fill="white"/>
<path d="M20 16H16V20H20V16Z" fill="white"/>
<path d="M12 28H8V32H12V28Z" fill="white"/>
<path d="M8 32H4V36H8V32Z" fill="white"/>
<path d="M8 24H4V28H8V24Z" fill="white"/>
<path d="M8 28H4V32H8V28Z" fill="white"/>
<path d="M8 20H4V24H8V20Z" fill="white"/>
<path d="M16 20H12V24H16V20Z" fill="white"/>
<path d="M20 8H16V12H20V8Z" fill="white"/>
<path d="M12 24H8V28H12V24Z" fill="white"/>
<path d="M16 24H12V28H16V24Z" fill="white"/>
<path d="M20 4H16V8H20V4Z" fill="white"/>
<path d="M20 12H16V16H20V12Z" fill="white"/>
<path d="M24 0H20V4H24V0Z" fill="white"/>
<path d="M28 4H24V8H28V4Z" fill="white"/>
<path d="M24 4H20V8H24V4Z" fill="white"/>
<path d="M16 32H12V36H16V32Z" fill="white"/>
</g>
<defs>
<clipPath id="clip0_498_3132">
<rect width="32" height="36" fill="white"/>
</clipPath>
</defs>
</svg>
