<svg width="185" height="83" viewBox="0 0 185 83" fill="none" xmlns="http://www.w3.org/2000/svg">
<path d="M75.75 46.6H75.575C75.425 46.95 75.2417 47.2917 75.025 47.625C74.825 47.9417 74.5667 48.225 74.25 48.475C73.95 48.725 73.5833 48.925 73.15 49.075C72.7167 49.225 72.2167 49.3 71.65 49.3C69.8333 49.3 68.4667 48.525 67.55 46.975C66.6333 45.425 66.175 43.2333 66.175 40.4C66.175 37.4333 66.7 35.1667 67.75 33.6C68.8 32.0333 70.4083 31.25 72.575 31.25C73.425 31.25 74.1667 31.3667 74.8 31.6C75.45 31.8333 76 32.15 76.45 32.55C76.9 32.9333 77.275 33.3917 77.575 33.925C77.875 34.4417 78.1167 34.9917 78.3 35.575L75.775 36.425C75.6417 36.0417 75.4917 35.6833 75.325 35.35C75.1583 35 74.95 34.6917 74.7 34.425C74.4667 34.1583 74.175 33.95 73.825 33.8C73.4917 33.65 73.0833 33.575 72.6 33.575C71.3833 33.575 70.5 34.05 69.95 35C69.4167 35.9333 69.15 37.2 69.15 38.8V41.575C69.15 42.375 69.2083 43.1083 69.325 43.775C69.4417 44.4417 69.6333 45.0167 69.9 45.5C70.1833 45.9667 70.5417 46.3333 70.975 46.6C71.425 46.8667 71.9667 47 72.6 47C73.6167 47 74.3917 46.7 74.925 46.1C75.475 45.4833 75.75 44.7 75.75 43.75V42.175H72.375V40.075H78.3V49H75.75V46.6ZM82.0902 30.5H84.8152V38.3H84.9402C85.0736 37.9667 85.2402 37.65 85.4402 37.35C85.6569 37.0333 85.9152 36.7667 86.2152 36.55C86.5152 36.3167 86.8652 36.1333 87.2652 36C87.6652 35.8667 88.1319 35.8 88.6652 35.8C89.9652 35.8 91.0152 36.225 91.8152 37.075C92.6152 37.925 93.0152 39.1333 93.0152 40.7V49H90.2902V41.1C90.2902 39.05 89.3986 38.025 87.6152 38.025C87.2652 38.025 86.9236 38.075 86.5902 38.175C86.2569 38.2583 85.9569 38.3917 85.6902 38.575C85.4236 38.7583 85.2069 38.9917 85.0402 39.275C84.8902 39.5583 84.8152 39.8833 84.8152 40.25V49H82.0902V30.5ZM102.48 49.3C101.53 49.3 100.672 49.1417 99.9055 48.825C99.1555 48.5083 98.5138 48.0583 97.9805 47.475C97.4638 46.8917 97.0638 46.1833 96.7805 45.35C96.4971 44.5167 96.3555 43.5833 96.3555 42.55C96.3555 41.5167 96.4971 40.5833 96.7805 39.75C97.0638 38.9167 97.4638 38.2083 97.9805 37.625C98.5138 37.0417 99.1555 36.5917 99.9055 36.275C100.672 35.9583 101.53 35.8 102.48 35.8C103.43 35.8 104.28 35.9583 105.03 36.275C105.797 36.5917 106.439 37.0417 106.955 37.625C107.489 38.2083 107.897 38.9167 108.18 39.75C108.464 40.5833 108.605 41.5167 108.605 42.55C108.605 43.5833 108.464 44.5167 108.18 45.35C107.897 46.1833 107.489 46.8917 106.955 47.475C106.439 48.0583 105.797 48.5083 105.03 48.825C104.28 49.1417 103.43 49.3 102.48 49.3ZM102.48 47.15C103.48 47.15 104.272 46.85 104.855 46.25C105.455 45.6333 105.755 44.725 105.755 43.525V41.575C105.755 40.375 105.455 39.475 104.855 38.875C104.272 38.2583 103.48 37.95 102.48 37.95C101.48 37.95 100.68 38.2583 100.08 38.875C99.4971 39.475 99.2055 40.375 99.2055 41.575V43.525C99.2055 44.725 99.4971 45.6333 100.08 46.25C100.68 46.85 101.48 47.15 102.48 47.15ZM117.496 49.3C116.096 49.3 114.887 49.075 113.871 48.625C112.871 48.175 112.062 47.575 111.446 46.825L113.121 45.325C113.687 45.9417 114.321 46.4167 115.021 46.75C115.737 47.0667 116.579 47.225 117.546 47.225C118.429 47.225 119.137 47.075 119.671 46.775C120.221 46.475 120.496 46.0083 120.496 45.375C120.496 45.1083 120.446 44.8833 120.346 44.7C120.246 44.5167 120.104 44.3667 119.921 44.25C119.737 44.1333 119.521 44.0417 119.271 43.975C119.037 43.9083 118.787 43.8583 118.521 43.825L116.471 43.5C115.971 43.4333 115.462 43.325 114.946 43.175C114.429 43.025 113.962 42.8167 113.546 42.55C113.146 42.2667 112.812 41.9083 112.546 41.475C112.296 41.0417 112.171 40.4917 112.171 39.825C112.171 38.5083 112.671 37.5083 113.671 36.825C114.687 36.1417 116.021 35.8 117.671 35.8C118.871 35.8 119.904 35.9833 120.771 36.35C121.654 36.7 122.387 37.1917 122.971 37.825L121.446 39.425C121.112 39.0417 120.637 38.6917 120.021 38.375C119.404 38.0417 118.587 37.875 117.571 37.875C115.754 37.875 114.846 38.45 114.846 39.6C114.846 40.15 115.037 40.5333 115.421 40.75C115.821 40.95 116.287 41.0833 116.821 41.15L118.871 41.475C119.387 41.5583 119.896 41.6667 120.396 41.8C120.912 41.9333 121.371 42.1417 121.771 42.425C122.187 42.6917 122.521 43.0417 122.771 43.475C123.037 43.9083 123.171 44.4583 123.171 45.125C123.171 46.425 122.662 47.45 121.646 48.2C120.646 48.9333 119.262 49.3 117.496 49.3ZM133.236 49C132.103 49 131.269 48.7 130.736 48.1C130.203 47.4833 129.936 46.6917 129.936 45.725V38.3H125.961V36.1H128.786C129.269 36.1 129.611 36.0083 129.811 35.825C130.011 35.625 130.111 35.275 130.111 34.775V31.55H132.661V36.1H138.161V38.3H132.661V46.8H138.161V49H133.236ZM148.251 33.75C147.551 33.75 147.06 33.6083 146.776 33.325C146.51 33.0417 146.376 32.6917 146.376 32.275V31.75C146.376 31.3333 146.51 30.9833 146.776 30.7C147.06 30.4167 147.543 30.275 148.226 30.275C148.926 30.275 149.41 30.4167 149.676 30.7C149.96 30.9833 150.101 31.3333 150.101 31.75V32.275C150.101 32.6917 149.96 33.0417 149.676 33.325C149.41 33.6083 148.935 33.75 148.251 33.75ZM142.476 46.8H146.876V38.3H142.476V36.1H149.601V46.8H153.726V49H142.476V46.8ZM156.891 46.8H161.016V38.3H156.641V36.1H161.016V33.775C161.016 32.8083 161.283 32.025 161.816 31.425C162.35 30.8083 163.183 30.5 164.316 30.5H168.666V32.7H163.741V36.1H168.666V38.3H163.741V46.8H168.091V49H156.891V46.8ZM181.207 36.1H183.957L177.707 51.5C177.373 52.3333 176.932 52.9583 176.382 53.375C175.848 53.7917 175.073 54 174.057 54H171.882V51.8H174.932L176.107 48.825L170.907 36.1H173.757L175.807 41.5L177.407 45.925H177.557L179.157 41.5L181.207 36.1Z" fill="white"/>
<g filter="url(#filter0_dddddd_2_905)">
<path d="M42.1446 26.5036C40.6012 26.0652 39.0542 25.9228 37.6161 26.0384C36.7816 26.0709 35.8744 26.1838 34.8896 26.3953C28.0565 27.8636 27.0803 33.2323 27.0803 34.9947V39.5993C27.0803 40.6061 26.8338 46.5181 26.7314 47.1812C26.5927 48.0801 26.4971 49.7645 26.3859 50.417C26.3053 50.8916 26.2356 51.2983 26.184 51.6333C26.1216 52.0411 26.0845 52.3425 26.0845 52.5307C25.6451 54.5859 26.8944 57.2708 30.4075 56.8935C31.1476 56.8935 32.4637 56.4336 34.1952 55.8287C34.4269 55.7478 34.6659 55.6643 34.9121 55.5789C35.9761 56.2657 37.3859 56.6835 38.9336 56.6835C41.5389 56.6835 43.7549 55.4959 44.5821 53.8398C44.8857 53.9106 45.1552 53.9775 45.397 54.0377C46.0485 54.2 46.5025 54.313 46.9041 54.3179C50.1282 54.6811 51.3099 52.3849 50.9322 50.6119C50.9337 50.5214 50.925 50.4003 50.9075 50.2497C50.8683 49.9099 50.787 49.4195 50.6824 48.7909C50.3853 47.0073 49.9031 44.1111 49.6873 40.3822C49.5631 36.557 49.3474 32.9874 48.9741 32.1006C48.9523 32.0493 48.9298 31.9969 48.9051 31.9434L48.8601 31.8458C47.9377 29.5283 45.4689 27.4479 42.1446 26.5036Z" fill="url(#paint0_linear_2_905)"/>
</g>
<path d="M42.1446 26.5036C40.6012 26.0652 39.0542 25.9228 37.6161 26.0384C36.7816 26.0709 35.8744 26.1838 34.8896 26.3953C28.0565 27.8636 27.0803 33.2323 27.0803 34.9947V45.9068C26.9772 46.6945 26.8711 47.4219 26.7687 48.0849C26.63 48.9839 26.4971 49.7645 26.3859 50.417C26.3053 50.8916 26.2356 51.2983 26.184 51.6333C26.1216 52.0411 26.0845 52.3425 26.0845 52.5307C25.6451 54.5859 26.8944 57.2708 30.4075 56.8935C31.1476 56.8935 32.4637 56.4336 34.1952 55.8287C34.4269 55.7478 34.6659 55.6643 34.9121 55.5789C35.9761 56.2657 37.3859 56.6835 38.9336 56.6835C41.5389 56.6835 43.7549 55.4959 44.5821 53.8398C44.8857 53.9106 45.1552 53.9775 45.397 54.0377C46.0485 54.2 46.5025 54.313 46.9041 54.3178C50.1282 54.6811 51.3099 52.3849 50.9322 50.6119C50.9337 50.5214 50.925 50.4003 50.9075 50.2497C50.8683 49.9099 50.787 49.4195 50.6824 48.7909C50.3853 47.0073 49.9031 44.1111 49.6873 40.3822C49.5631 36.557 49.3474 32.9874 48.9741 32.1006C48.9523 32.0493 48.9298 31.9969 48.9051 31.9434L48.8601 31.8458C47.9377 29.5283 45.4689 27.4479 42.1446 26.5036Z" fill="#D9D9D9"/>
<path d="M42.1446 26.5036C40.6012 26.0652 39.0542 25.9228 37.6161 26.0384C36.7816 26.0709 35.8744 26.1838 34.8896 26.3953C28.0565 27.8636 27.0803 33.2323 27.0803 34.9947V39.5993C27.0803 40.6061 27.0471 44.6539 26.8706 45.7972C26.7319 46.6961 26.4843 49.3569 26.3731 50.0093C26.2925 50.484 26.2356 51.2983 26.184 51.6333C26.1216 52.0411 26.0845 52.3425 26.0845 52.5307C25.6451 54.5859 26.8944 57.2708 30.4075 56.8935C31.1476 56.8935 32.4637 56.4336 34.1952 55.8287C34.4269 55.7478 34.6658 55.6643 34.9121 55.5789C35.9761 56.2657 37.3859 56.6835 38.9336 56.6835C41.5389 56.6835 43.7549 55.4959 44.5821 53.8398C44.8857 53.9106 45.1552 53.9775 45.397 54.0377C46.0485 54.2 46.5025 54.313 46.9041 54.3179C50.1282 54.6811 51.3099 52.3849 50.9322 50.6119C50.9337 50.5214 50.925 50.4003 50.9075 50.2497C50.8683 49.9099 50.787 49.4195 50.6824 48.7909C50.3853 47.0073 49.9031 44.1111 49.6873 40.3822C49.5631 36.557 49.3474 32.9874 48.9741 32.1006C48.9523 32.0493 48.9298 31.9969 48.9051 31.9434L48.8601 31.8458C47.9377 29.5283 45.4689 27.4479 42.1446 26.5036Z" fill="url(#paint1_linear_2_905)"/>
<g filter="url(#filter1_f_2_905)">
<path d="M41.23 28.4269C37.6724 27.7366 30.3355 28.0212 29.4484 34.6818" stroke="url(#paint2_linear_2_905)" stroke-width="15"/>
</g>
<g filter="url(#filter2_f_2_905)">
<path d="M41.23 28.4269C37.6724 27.7366 30.3355 28.0212 29.4484 34.6818" stroke="url(#paint3_linear_2_905)" stroke-width="15"/>
</g>
<g filter="url(#filter3_f_2_905)">
<path d="M41.23 28.4269C37.6724 27.7366 30.3355 28.0212 29.4484 34.6818" stroke="url(#paint4_linear_2_905)" stroke-width="10"/>
</g>
<g filter="url(#filter4_f_2_905)">
<path d="M47.7432 31.4707C48.1386 31.5605 48.266 30.4625 47.8558 34.3858C47.2448 40.2289 47.5088 41.7251 47.7482 43.0086" stroke="url(#paint5_linear_2_905)" stroke-width="15"/>
</g>
<g filter="url(#filter5_f_2_905)">
<path d="M47.7432 31.4707C48.1386 31.5605 48.266 30.4625 47.8558 34.3858C47.2448 40.2289 47.5088 41.7251 47.7482 43.0086" stroke="url(#paint6_linear_2_905)" stroke-width="10"/>
</g>
<g filter="url(#filter6_f_2_905)">
<path d="M29.9155 35.6017C29.522 35.7095 29.3572 34.2544 29.9008 39.4529C30.7104 47.1953 30.4961 49.1664 30.2992 50.8569" stroke="url(#paint7_linear_2_905)" stroke-width="15"/>
</g>
<g filter="url(#filter7_f_2_905)">
<path d="M30.225 38.5323C29.8288 38.614 29.7179 37.6748 30.0689 41.0315C30.5917 46.0309 30.3057 47.3162 30.0473 48.419" stroke="url(#paint8_linear_2_905)" stroke-width="10"/>
</g>
<g filter="url(#filter8_f_2_905)">
<path d="M29.5088 51.77C29.1376 52.4616 28.4394 54.232 28.6167 55.7807" stroke="url(#paint9_linear_2_905)" stroke-opacity="0.8" stroke-width="7"/>
</g>
<g filter="url(#filter9_f_2_905)">
<path d="M29.5469 51.7002C29.1756 52.3918 28.4775 54.1621 28.6548 55.7108" stroke="white" stroke-opacity="0.4" stroke-width="5"/>
</g>
<g filter="url(#filter10_f_2_905)">
<path d="M29.2124 52.686C28.9394 53.233 28.4908 54.6089 28.8801 55.7369" stroke="white" stroke-opacity="0.4" stroke-width="5"/>
</g>
<g filter="url(#filter11_f_2_905)">
<path d="M48.5889 44.6035C49.0359 46.77 49.7619 51.1994 49.0903 51.5849" stroke="url(#paint10_linear_2_905)" stroke-opacity="0.8" stroke-width="7"/>
</g>
<g filter="url(#filter12_f_2_905)">
<path d="M48.5969 45.4778C49.0637 46.8391 49.8313 49.6101 49.1669 49.8036" stroke="url(#paint11_linear_2_905)" stroke-opacity="0.8" stroke-width="5"/>
</g>
<g filter="url(#filter13_f_2_905)">
<path d="M37.4941 55.5725C36.5307 54.8847 34.0898 53.8186 32.0344 55.0567" stroke="url(#paint12_linear_2_905)" stroke-opacity="0.8" stroke-width="7"/>
</g>
<g filter="url(#filter14_f_2_905)">
<path d="M36.6323 55.5725C35.9731 54.8847 34.303 53.8186 32.8967 55.0567" stroke="url(#paint13_linear_2_905)" stroke-opacity="0.8" stroke-width="5"/>
</g>
<g filter="url(#filter15_f_2_905)">
<path d="M46.6895 53.4025C46.0302 53.0586 44.3602 52.5255 42.9538 53.1445" stroke="url(#paint14_linear_2_905)" stroke-opacity="0.8" stroke-width="5"/>
</g>
<g filter="url(#filter16_f_2_905)">
<path d="M42.891 54.0248C43.4584 53.4022 44.9702 52.3669 46.4774 53.2064" stroke="url(#paint15_linear_2_905)" stroke-opacity="0.8" stroke-width="5"/>
</g>
<g filter="url(#filter17_f_2_905)">
<path d="M42.0949 54.1856C42.7789 53.1352 44.6408 51.418 46.6165 52.9521" stroke="url(#paint16_linear_2_905)" stroke-opacity="0.7" stroke-width="5"/>
</g>
<g filter="url(#filter18_f_2_905)">
<path d="M38.1441 55.4729C37.396 54.7932 35.4216 53.6492 33.5093 54.5101" stroke="url(#paint17_linear_2_905)" stroke-opacity="0.7" stroke-width="5"/>
</g>
<g filter="url(#filter19_f_2_905)">
<path d="M41.874 54.7207C41.2641 55.1956 39.7292 56.0121 38.4688 55.4789" stroke="url(#paint18_linear_2_905)" stroke-opacity="0.8" stroke-width="4"/>
</g>
<g filter="url(#filter20_f_2_905)">
<path d="M41.874 54.7207C41.2641 55.1956 39.7292 56.0121 38.4688 55.4789" stroke="url(#paint19_linear_2_905)" stroke-opacity="0.8" stroke-width="4"/>
</g>
<g filter="url(#filter21_f_2_905)">
<path d="M41.2344 55.1011C40.8529 55.3981 39.893 55.9087 39.1047 55.5753" stroke="url(#paint20_linear_2_905)" stroke-opacity="0.8" stroke-width="2"/>
</g>
<g filter="url(#filter22_f_2_905)">
<path d="M49.9517 52.0605C49.63 52.5083 48.7304 53.3721 47.7053 53.246" stroke="url(#paint21_linear_2_905)" stroke-opacity="0.8" stroke-width="4"/>
</g>
<g filter="url(#filter23_f_2_905)">
<path d="M28.7568 56.9717C29.2022 57.3711 30.3168 58.0646 31.2117 57.6428" stroke="url(#paint22_linear_2_905)" stroke-opacity="0.8" stroke-width="4"/>
</g>
<g filter="url(#filter24_f_2_905)">
<path d="M29.5469 57.4976C29.7582 57.6199 30.2951 57.8248 30.7523 57.666" stroke="url(#paint23_linear_2_905)" stroke-opacity="0.8" stroke-width="2"/>
</g>
<defs>
<filter id="filter0_dddddd_2_905" x="0.347383" y="0.347383" width="76.3052" height="82.2344" filterUnits="userSpaceOnUse" color-interpolation-filters="sRGB">
<feFlood flood-opacity="0" result="BackgroundImageFix"/>
<feColorMatrix in="SourceAlpha" type="matrix" values="0 0 0 0 0 0 0 0 0 0 0 0 0 0 0 0 0 0 127 0" result="hardAlpha"/>
<feOffset/>
<feGaussianBlur stdDeviation="0.305388"/>
<feColorMatrix type="matrix" values="0 0 0 0 1 0 0 0 0 1 0 0 0 0 1 0 0 0 1 0"/>
<feBlend mode="normal" in2="BackgroundImageFix" result="effect1_dropShadow_2_905"/>
<feColorMatrix in="SourceAlpha" type="matrix" values="0 0 0 0 0 0 0 0 0 0 0 0 0 0 0 0 0 0 127 0" result="hardAlpha"/>
<feOffset/>
<feGaussianBlur stdDeviation="0.610777"/>
<feColorMatrix type="matrix" values="0 0 0 0 1 0 0 0 0 1 0 0 0 0 1 0 0 0 1 0"/>
<feBlend mode="normal" in2="effect1_dropShadow_2_905" result="effect2_dropShadow_2_905"/>
<feColorMatrix in="SourceAlpha" type="matrix" values="0 0 0 0 0 0 0 0 0 0 0 0 0 0 0 0 0 0 127 0" result="hardAlpha"/>
<feOffset/>
<feGaussianBlur stdDeviation="2.13772"/>
<feColorMatrix type="matrix" values="0 0 0 0 1 0 0 0 0 1 0 0 0 0 1 0 0 0 1 0"/>
<feBlend mode="normal" in2="effect2_dropShadow_2_905" result="effect3_dropShadow_2_905"/>
<feColorMatrix in="SourceAlpha" type="matrix" values="0 0 0 0 0 0 0 0 0 0 0 0 0 0 0 0 0 0 127 0" result="hardAlpha"/>
<feOffset/>
<feGaussianBlur stdDeviation="4.27544"/>
<feColorMatrix type="matrix" values="0 0 0 0 1 0 0 0 0 1 0 0 0 0 1 0 0 0 1 0"/>
<feBlend mode="normal" in2="effect3_dropShadow_2_905" result="effect4_dropShadow_2_905"/>
<feColorMatrix in="SourceAlpha" type="matrix" values="0 0 0 0 0 0 0 0 0 0 0 0 0 0 0 0 0 0 127 0" result="hardAlpha"/>
<feOffset/>
<feGaussianBlur stdDeviation="7.32932"/>
<feColorMatrix type="matrix" values="0 0 0 0 1 0 0 0 0 1 0 0 0 0 1 0 0 0 1 0"/>
<feBlend mode="normal" in2="effect4_dropShadow_2_905" result="effect5_dropShadow_2_905"/>
<feColorMatrix in="SourceAlpha" type="matrix" values="0 0 0 0 0 0 0 0 0 0 0 0 0 0 0 0 0 0 127 0" result="hardAlpha"/>
<feOffset/>
<feGaussianBlur stdDeviation="12.8263"/>
<feColorMatrix type="matrix" values="0 0 0 0 1 0 0 0 0 1 0 0 0 0 1 0 0 0 1 0"/>
<feBlend mode="normal" in2="effect5_dropShadow_2_905" result="effect6_dropShadow_2_905"/>
<feBlend mode="normal" in="SourceGraphic" in2="effect6_dropShadow_2_905" result="shape"/>
</filter>
<filter id="filter1_f_2_905" x="2.01416" y="0.67041" width="60.6445" height="55.3105" filterUnits="userSpaceOnUse" color-interpolation-filters="sRGB">
<feFlood flood-opacity="0" result="BackgroundImageFix"/>
<feBlend mode="normal" in="SourceGraphic" in2="BackgroundImageFix" result="shape"/>
<feGaussianBlur stdDeviation="10" result="effect1_foregroundBlur_2_905"/>
</filter>
<filter id="filter2_f_2_905" x="12.0142" y="10.6704" width="40.6445" height="35.3105" filterUnits="userSpaceOnUse" color-interpolation-filters="sRGB">
<feFlood flood-opacity="0" result="BackgroundImageFix"/>
<feBlend mode="normal" in="SourceGraphic" in2="BackgroundImageFix" result="shape"/>
<feGaussianBlur stdDeviation="5" result="effect1_foregroundBlur_2_905"/>
</filter>
<filter id="filter3_f_2_905" x="14.4922" y="13.1704" width="37.6904" height="32.1714" filterUnits="userSpaceOnUse" color-interpolation-filters="sRGB">
<feFlood flood-opacity="0" result="BackgroundImageFix"/>
<feBlend mode="normal" in="SourceGraphic" in2="BackgroundImageFix" result="shape"/>
<feGaussianBlur stdDeviation="5" result="effect1_foregroundBlur_2_905"/>
</filter>
<filter id="filter4_f_2_905" x="24.9668" y="8.90869" width="45.6553" height="50.6035" filterUnits="userSpaceOnUse" color-interpolation-filters="sRGB">
<feFlood flood-opacity="0" result="BackgroundImageFix"/>
<feBlend mode="normal" in="SourceGraphic" in2="BackgroundImageFix" result="shape"/>
<feGaussianBlur stdDeviation="7.5" result="effect1_foregroundBlur_2_905"/>
</filter>
<filter id="filter5_f_2_905" x="27.4712" y="11.4038" width="40.6445" height="47.6069" filterUnits="userSpaceOnUse" color-interpolation-filters="sRGB">
<feFlood flood-opacity="0" result="BackgroundImageFix"/>
<feBlend mode="normal" in="SourceGraphic" in2="BackgroundImageFix" result="shape"/>
<feGaussianBlur stdDeviation="7.5" result="effect1_foregroundBlur_2_905"/>
</filter>
<filter id="filter6_f_2_905" x="7.0415" y="13.0068" width="45.9526" height="53.8525" filterUnits="userSpaceOnUse" color-interpolation-filters="sRGB">
<feFlood flood-opacity="0" result="BackgroundImageFix"/>
<feBlend mode="normal" in="SourceGraphic" in2="BackgroundImageFix" result="shape"/>
<feGaussianBlur stdDeviation="7.5" result="effect1_foregroundBlur_2_905"/>
</filter>
<filter id="filter7_f_2_905" x="9.84863" y="18.48" width="40.522" height="46.1611" filterUnits="userSpaceOnUse" color-interpolation-filters="sRGB">
<feFlood flood-opacity="0" result="BackgroundImageFix"/>
<feBlend mode="normal" in="SourceGraphic" in2="BackgroundImageFix" result="shape"/>
<feGaussianBlur stdDeviation="7.5" result="effect1_foregroundBlur_2_905"/>
</filter>
<filter id="filter8_f_2_905" x="15.0811" y="40.1729" width="27.5137" height="26.0732" filterUnits="userSpaceOnUse" color-interpolation-filters="sRGB">
<feFlood flood-opacity="0" result="BackgroundImageFix"/>
<feBlend mode="normal" in="SourceGraphic" in2="BackgroundImageFix" result="shape"/>
<feGaussianBlur stdDeviation="5" result="effect1_foregroundBlur_2_905"/>
</filter>
<filter id="filter9_f_2_905" x="16.1211" y="40.5596" width="25.6299" height="25.4839" filterUnits="userSpaceOnUse" color-interpolation-filters="sRGB">
<feFlood flood-opacity="0" result="BackgroundImageFix"/>
<feBlend mode="normal" in="SourceGraphic" in2="BackgroundImageFix" result="shape"/>
<feGaussianBlur stdDeviation="5" result="effect1_foregroundBlur_2_905"/>
</filter>
<filter id="filter10_f_2_905" x="16.2275" y="41.5586" width="25.2236" height="24.98" filterUnits="userSpaceOnUse" color-interpolation-filters="sRGB">
<feFlood flood-opacity="0" result="BackgroundImageFix"/>
<feBlend mode="normal" in="SourceGraphic" in2="BackgroundImageFix" result="shape"/>
<feGaussianBlur stdDeviation="5" result="effect1_foregroundBlur_2_905"/>
</filter>
<filter id="filter11_f_2_905" x="36.1548" y="34.8423" width="25.7134" height="28.7637" filterUnits="userSpaceOnUse" color-interpolation-filters="sRGB">
<feFlood flood-opacity="0" result="BackgroundImageFix"/>
<feBlend mode="normal" in="SourceGraphic" in2="BackgroundImageFix" result="shape"/>
<feGaussianBlur stdDeviation="4.5" result="effect1_foregroundBlur_2_905"/>
</filter>
<filter id="filter12_f_2_905" x="37.2207" y="35.6221" width="23.7134" height="25.5718" filterUnits="userSpaceOnUse" color-interpolation-filters="sRGB">
<feFlood flood-opacity="0" result="BackgroundImageFix"/>
<feBlend mode="normal" in="SourceGraphic" in2="BackgroundImageFix" result="shape"/>
<feGaussianBlur stdDeviation="4.5" result="effect1_foregroundBlur_2_905"/>
</filter>
<filter id="filter13_f_2_905" x="15.2285" y="35.9878" width="39.2993" height="37.4331" filterUnits="userSpaceOnUse" color-interpolation-filters="sRGB">
<feFlood flood-opacity="0" result="BackgroundImageFix"/>
<feBlend mode="normal" in="SourceGraphic" in2="BackgroundImageFix" result="shape"/>
<feGaussianBlur stdDeviation="7.5" result="effect1_foregroundBlur_2_905"/>
</filter>
<filter id="filter14_f_2_905" x="21.2446" y="41.9888" width="27.1924" height="25.3135" filterUnits="userSpaceOnUse" color-interpolation-filters="sRGB">
<feFlood flood-opacity="0" result="BackgroundImageFix"/>
<feBlend mode="normal" in="SourceGraphic" in2="BackgroundImageFix" result="shape"/>
<feGaussianBlur stdDeviation="5" result="effect1_foregroundBlur_2_905"/>
</filter>
<filter id="filter15_f_2_905" x="31.9468" y="40.3599" width="25.8989" height="25.2593" filterUnits="userSpaceOnUse" color-interpolation-filters="sRGB">
<feFlood flood-opacity="0" result="BackgroundImageFix"/>
<feBlend mode="normal" in="SourceGraphic" in2="BackgroundImageFix" result="shape"/>
<feGaussianBlur stdDeviation="5" result="effect1_foregroundBlur_2_905"/>
</filter>
<filter id="filter16_f_2_905" x="26.0142" y="35.3994" width="36.6479" height="35.3232" filterUnits="userSpaceOnUse" color-interpolation-filters="sRGB">
<feFlood flood-opacity="0" result="BackgroundImageFix"/>
<feBlend mode="normal" in="SourceGraphic" in2="BackgroundImageFix" result="shape"/>
<feGaussianBlur stdDeviation="7.5" result="effect1_foregroundBlur_2_905"/>
</filter>
<filter id="filter17_f_2_905" x="24.98" y="34.8506" width="38.1499" height="35.7251" filterUnits="userSpaceOnUse" color-interpolation-filters="sRGB">
<feFlood flood-opacity="0" result="BackgroundImageFix"/>
<feBlend mode="normal" in="SourceGraphic" in2="BackgroundImageFix" result="shape"/>
<feGaussianBlur stdDeviation="7.5" result="effect1_foregroundBlur_2_905"/>
</filter>
<filter id="filter18_f_2_905" x="17.5215" y="36.7095" width="37.3389" height="35.6216" filterUnits="userSpaceOnUse" color-interpolation-filters="sRGB">
<feFlood flood-opacity="0" result="BackgroundImageFix"/>
<feBlend mode="normal" in="SourceGraphic" in2="BackgroundImageFix" result="shape"/>
<feGaussianBlur stdDeviation="7.5" result="effect1_foregroundBlur_2_905"/>
</filter>
<filter id="filter19_f_2_905" x="27.6387" y="43.1665" width="25.4478" height="24.479" filterUnits="userSpaceOnUse" color-interpolation-filters="sRGB">
<feFlood flood-opacity="0" result="BackgroundImageFix"/>
<feBlend mode="normal" in="SourceGraphic" in2="BackgroundImageFix" result="shape"/>
<feGaussianBlur stdDeviation="5" result="effect1_foregroundBlur_2_905"/>
</filter>
<filter id="filter20_f_2_905" x="27.6387" y="43.1665" width="25.4478" height="24.479" filterUnits="userSpaceOnUse" color-interpolation-filters="sRGB">
<feFlood flood-opacity="0" result="BackgroundImageFix"/>
<feBlend mode="normal" in="SourceGraphic" in2="BackgroundImageFix" result="shape"/>
<feGaussianBlur stdDeviation="5" result="effect1_foregroundBlur_2_905"/>
</filter>
<filter id="filter21_f_2_905" x="28.6895" y="44.3242" width="23.1514" height="22.356" filterUnits="userSpaceOnUse" color-interpolation-filters="sRGB">
<feFlood flood-opacity="0" result="BackgroundImageFix"/>
<feBlend mode="normal" in="SourceGraphic" in2="BackgroundImageFix" result="shape"/>
<feGaussianBlur stdDeviation="5" result="effect1_foregroundBlur_2_905"/>
</filter>
<filter id="filter22_f_2_905" x="37.5176" y="40.8745" width="24.0835" height="24.374" filterUnits="userSpaceOnUse" color-interpolation-filters="sRGB">
<feFlood flood-opacity="0" result="BackgroundImageFix"/>
<feBlend mode="normal" in="SourceGraphic" in2="BackgroundImageFix" result="shape"/>
<feGaussianBlur stdDeviation="5" result="effect1_foregroundBlur_2_905"/>
</filter>
<filter id="filter23_f_2_905" x="17.4331" y="45.5103" width="24.6807" height="24.2563" filterUnits="userSpaceOnUse" color-interpolation-filters="sRGB">
<feFlood flood-opacity="0" result="BackgroundImageFix"/>
<feBlend mode="normal" in="SourceGraphic" in2="BackgroundImageFix" result="shape"/>
<feGaussianBlur stdDeviation="5" result="effect1_foregroundBlur_2_905"/>
</filter>
<filter id="filter24_f_2_905" x="19.0591" y="46.6406" width="22.0479" height="22.0796" filterUnits="userSpaceOnUse" color-interpolation-filters="sRGB">
<feFlood flood-opacity="0" result="BackgroundImageFix"/>
<feBlend mode="normal" in="SourceGraphic" in2="BackgroundImageFix" result="shape"/>
<feGaussianBlur stdDeviation="5" result="effect1_foregroundBlur_2_905"/>
</filter>
<linearGradient id="paint0_linear_2_905" x1="40.6344" y1="21.5533" x2="37.1841" y2="64.1121" gradientUnits="userSpaceOnUse">
<stop stop-color="white"/>
<stop offset="0.515625" stop-color="#A8B4B9"/>
<stop offset="1" stop-color="#3F4B50"/>
</linearGradient>
<linearGradient id="paint1_linear_2_905" x1="40.6344" y1="21.5533" x2="37.1841" y2="64.1121" gradientUnits="userSpaceOnUse">
<stop stop-color="white"/>
<stop offset="0.515625" stop-color="#A8B4B9"/>
<stop offset="1" stop-color="#3F4B50"/>
</linearGradient>
<linearGradient id="paint2_linear_2_905" x1="29.4484" y1="33.6253" x2="38.8596" y2="33.2243" gradientUnits="userSpaceOnUse">
<stop stop-color="white" stop-opacity="0"/>
<stop offset="0.469131" stop-color="white"/>
<stop offset="1" stop-color="white" stop-opacity="0"/>
<stop offset="1" stop-color="white" stop-opacity="0"/>
</linearGradient>
<linearGradient id="paint3_linear_2_905" x1="29.4484" y1="33.6253" x2="38.8596" y2="33.2243" gradientUnits="userSpaceOnUse">
<stop stop-color="white" stop-opacity="0"/>
<stop offset="0.469131" stop-color="white"/>
<stop offset="1" stop-color="white" stop-opacity="0"/>
<stop offset="1" stop-color="white" stop-opacity="0"/>
</linearGradient>
<linearGradient id="paint4_linear_2_905" x1="29.4484" y1="33.6253" x2="38.8596" y2="33.2243" gradientUnits="userSpaceOnUse">
<stop stop-color="white" stop-opacity="0"/>
<stop offset="0.469131" stop-color="white"/>
<stop offset="1" stop-color="white" stop-opacity="0"/>
<stop offset="1" stop-color="white" stop-opacity="0"/>
</linearGradient>
<linearGradient id="paint5_linear_2_905" x1="48.1617" y1="46.2018" x2="50.1455" y2="45.902" gradientUnits="userSpaceOnUse">
<stop stop-color="white" stop-opacity="0"/>
<stop offset="0.469131" stop-color="white"/>
<stop offset="1" stop-color="white" stop-opacity="0"/>
<stop offset="1" stop-color="white" stop-opacity="0"/>
</linearGradient>
<linearGradient id="paint6_linear_2_905" x1="48.1617" y1="46.2018" x2="50.1455" y2="45.902" gradientUnits="userSpaceOnUse">
<stop stop-color="white" stop-opacity="0"/>
<stop offset="0.469131" stop-color="white"/>
<stop offset="1" stop-color="white" stop-opacity="0"/>
<stop offset="1" stop-color="white" stop-opacity="0"/>
</linearGradient>
<linearGradient id="paint7_linear_2_905" x1="29.9921" y1="55.0676" x2="27.9684" y2="54.8867" gradientUnits="userSpaceOnUse">
<stop stop-color="white" stop-opacity="0"/>
<stop offset="0.469131" stop-color="white"/>
<stop offset="1" stop-color="white" stop-opacity="0"/>
<stop offset="1" stop-color="white" stop-opacity="0"/>
</linearGradient>
<linearGradient id="paint8_linear_2_905" x1="29.5866" y1="51.1602" x2="27.6375" y2="50.7836" gradientUnits="userSpaceOnUse">
<stop stop-color="white" stop-opacity="0"/>
<stop offset="0.469131" stop-color="white"/>
<stop offset="1" stop-color="white" stop-opacity="0"/>
<stop offset="1" stop-color="white" stop-opacity="0"/>
</linearGradient>
<linearGradient id="paint9_linear_2_905" x1="26.3872" y1="47.3319" x2="25.1088" y2="47.9111" gradientUnits="userSpaceOnUse">
<stop stop-color="white" stop-opacity="0"/>
<stop offset="0.220632" stop-color="white"/>
<stop offset="1" stop-color="white" stop-opacity="0"/>
</linearGradient>
<linearGradient id="paint10_linear_2_905" x1="48.2807" y1="44.1572" x2="46.7689" y2="44.7988" gradientUnits="userSpaceOnUse">
<stop stop-color="white" stop-opacity="0"/>
<stop offset="0.220632" stop-color="white"/>
<stop offset="1" stop-color="white" stop-opacity="0"/>
</linearGradient>
<linearGradient id="paint11_linear_2_905" x1="48.2856" y1="45.1833" x2="47.1176" y2="45.9696" gradientUnits="userSpaceOnUse">
<stop stop-color="white" stop-opacity="0"/>
<stop offset="0.220632" stop-color="white"/>
<stop offset="1" stop-color="white" stop-opacity="0"/>
</linearGradient>
<linearGradient id="paint12_linear_2_905" x1="30.1716" y1="55.0263" x2="30.172" y2="55.5715" gradientUnits="userSpaceOnUse">
<stop offset="0.220632" stop-color="#3D4E54"/>
</linearGradient>
<linearGradient id="paint13_linear_2_905" x1="32.6572" y1="54.6682" x2="32.6515" y2="55.027" gradientUnits="userSpaceOnUse">
<stop stop-color="#3D4E54" stop-opacity="0"/>
<stop offset="0.475106" stop-color="#3D4E54"/>
<stop offset="1" stop-color="#3D4E54" stop-opacity="0"/>
</linearGradient>
<linearGradient id="paint14_linear_2_905" x1="42.7144" y1="52.9503" x2="42.7129" y2="53.1298" gradientUnits="userSpaceOnUse">
<stop stop-color="#3D4E54" stop-opacity="0"/>
<stop offset="0.475106" stop-color="#3D4E54"/>
<stop offset="1" stop-color="#3D4E54" stop-opacity="0"/>
</linearGradient>
<linearGradient id="paint15_linear_2_905" x1="47.717" y1="53.0439" x2="47.7654" y2="53.482" gradientUnits="userSpaceOnUse">
<stop stop-color="#3D4E54"/>
<stop offset="0.369792" stop-color="#3D4E54"/>
<stop offset="1" stop-color="#3D4E54"/>
</linearGradient>
<linearGradient id="paint16_linear_2_905" x1="48.187" y1="52.7345" x2="48.271" y2="53.4974" gradientUnits="userSpaceOnUse">
<stop stop-color="#3D4E54"/>
<stop offset="0.369792" stop-color="#3D4E54"/>
<stop offset="1" stop-color="#3D4E54"/>
</linearGradient>
<linearGradient id="paint17_linear_2_905" x1="31.911" y1="54.3061" x2="31.8593" y2="54.7731" gradientUnits="userSpaceOnUse">
<stop stop-color="#3D4E54"/>
<stop offset="0.369792" stop-color="#3D4E54"/>
<stop offset="1" stop-color="#3D4E54"/>
</linearGradient>
<linearGradient id="paint18_linear_2_905" x1="37.4542" y1="54.7923" x2="37.3755" y2="55.4204" gradientUnits="userSpaceOnUse">
<stop stop-color="#B4BFC3" stop-opacity="0"/>
<stop offset="0.220632" stop-color="#B4BFC3"/>
<stop offset="1" stop-color="#B4BFC3" stop-opacity="0"/>
</linearGradient>
<linearGradient id="paint19_linear_2_905" x1="37.4542" y1="54.7923" x2="37.3755" y2="55.4204" gradientUnits="userSpaceOnUse">
<stop stop-color="#B4BFC3" stop-opacity="0"/>
<stop offset="0.220632" stop-color="#B4BFC3"/>
<stop offset="1" stop-color="#B4BFC3" stop-opacity="0"/>
</linearGradient>
<linearGradient id="paint20_linear_2_905" x1="38.4702" y1="55.1459" x2="38.421" y2="55.5386" gradientUnits="userSpaceOnUse">
<stop offset="0.220632" stop-color="#B4BFC3"/>
</linearGradient>
<linearGradient id="paint21_linear_2_905" x1="46.819" y1="52.9657" x2="46.8843" y2="53.4209" gradientUnits="userSpaceOnUse">
<stop offset="0.220632" stop-color="#B4BFC3"/>
</linearGradient>
<linearGradient id="paint22_linear_2_905" x1="31.9278" y1="57.0913" x2="31.9926" y2="57.6099" gradientUnits="userSpaceOnUse">
<stop offset="0.220632" stop-color="#B4BFC3"/>
</linearGradient>
<linearGradient id="paint23_linear_2_905" x1="31.1238" y1="57.4683" x2="31.1451" y2="57.6379" gradientUnits="userSpaceOnUse">
<stop offset="0.220632" stop-color="#B4BFC3"/>
</linearGradient>
</defs>
</svg>
