<svg width="72" height="72" viewBox="0 0 72 72" fill="none" xmlns="http://www.w3.org/2000/svg">
<g id="Email Landing" clip-path="url(#clip0_569_748)">
<g id="Group 1597880408">
</g>
<g id="Group 1597880675">
<g id="Group 1597880671" filter="url(#filter0_d_569_748)">
<g id="Group 1597880624">
</g>
</g>
<g id="FinWandSm 7">
<g id="Layer 17">
<g id="Group">
<path id="Vector" d="M48.5597 27.3335H45.4178V30.2594H48.5597V27.3335Z" fill="white"/>
<path id="Vector_2" d="M48.5597 24.4077H45.4178V27.3337H48.5597V24.4077Z" fill="white"/>
<path id="Vector_3" d="M45.4181 30.2598H42.2763V33.1857H45.4181V30.2598Z" fill="white"/>
<path id="Vector_4" d="M45.4181 21.4817H42.2763V24.4076H45.4181V21.4817Z" fill="white"/>
<path id="Vector_5" d="M42.276 27.3335H39.1342V30.2594H42.276V27.3335Z" fill="white"/>
<path id="Vector_6" d="M42.276 18.5557H39.1342V21.4816H42.276V18.5557Z" fill="white"/>
<path id="Vector_7" d="M42.276 3.92578H39.1342V6.85173H42.276V3.92578Z" fill="white"/>
<path id="Vector_8" d="M39.1344 24.4077H35.9926V27.3337H39.1344V24.4077Z" fill="white"/>
<path id="Vector_9" d="M39.1344 15.6296H35.9926V18.5556H39.1344V15.6296Z" fill="white"/>
<path id="Vector_10" d="M39.1344 6.85181H35.9926V9.77775H39.1344V6.85181Z" fill="white"/>
<path id="Vector_11" d="M39.1344 1H35.9926V3.92595H39.1344V1Z" fill="white"/>
<path id="Vector_12" d="M35.9923 21.4817H32.8505V24.4076H35.9923V21.4817Z" fill="white"/>
<path id="Vector_13" d="M35.9923 18.5557H32.8505V21.4816H35.9923V18.5557Z" fill="white"/>
<path id="Vector_14" d="M35.9923 15.6296H32.8505V18.5556H35.9923V15.6296Z" fill="white"/>
<path id="Vector_15" d="M35.9923 12.7039H32.8505V15.6298H35.9923V12.7039Z" fill="white"/>
<path id="Vector_16" d="M35.9923 3.92578H32.8505V6.85173H35.9923V3.92578Z" fill="white"/>
<path id="Vector_17" d="M32.8512 18.5557H29.7094V21.4816H32.8512V18.5557Z" fill="white"/>
<path id="Vector_18" d="M32.8512 15.6296H29.7094V18.5556H32.8512V15.6296Z" fill="white"/>
<path id="Vector_19" d="M32.8512 12.7039H29.7094V15.6298H32.8512V12.7039Z" fill="white"/>
<path id="Vector_20" d="M32.8512 9.77759H29.7094V12.7035H32.8512V9.77759Z" fill="white"/>
<path id="Vector_21" d="M29.7091 15.6296H26.5673V18.5556H29.7091V15.6296Z" fill="white"/>
<path id="Vector_22" d="M29.7091 12.7039H26.5673V15.6298H29.7091V12.7039Z" fill="white"/>
<path id="Vector_23" d="M26.5676 3.92578H23.4258V6.85173H26.5676V3.92578Z" fill="white"/>
<path id="Vector_24" d="M23.4255 15.6296H20.2837V18.5556H23.4255V15.6296Z" fill="white"/>
<path id="Vector_25" d="M23.4255 6.85181H20.2837V9.77775H23.4255V6.85181Z" fill="white"/>
<path id="Vector_26" d="M23.4255 1H20.2837V3.92595H23.4255V1Z" fill="white"/>
<path id="Vector_27" d="M20.2839 18.5557H17.1421V21.4816H20.2839V18.5557Z" fill="white"/>
<path id="Vector_28" d="M20.2839 12.7039H17.1421V15.6298H20.2839V12.7039Z" fill="white"/>
<path id="Vector_29" d="M20.2839 3.92578H17.1421V6.85173H20.2839V3.92578Z" fill="white"/>
<path id="Vector_30" d="M17.1418 15.6296H14V18.5556H17.1418V15.6296Z" fill="white"/>
</g>
</g>
</g>
</g>
</g>
<defs>
<filter id="filter0_d_569_748" x="-45" y="-73" width="430.508" height="442" filterUnits="userSpaceOnUse" color-interpolation-filters="sRGB">
<feFlood flood-opacity="0" result="BackgroundImageFix"/>
<feColorMatrix in="SourceAlpha" type="matrix" values="0 0 0 0 0 0 0 0 0 0 0 0 0 0 0 0 0 0 127 0" result="hardAlpha"/>
<feOffset dx="25" dy="25"/>
<feGaussianBlur stdDeviation="25"/>
<feComposite in2="hardAlpha" operator="out"/>
<feColorMatrix type="matrix" values="0 0 0 0 0 0 0 0 0 0 0 0 0 0 0 0 0 0 0.5 0"/>
<feBlend mode="normal" in2="BackgroundImageFix" result="effect1_dropShadow_569_748"/>
<feBlend mode="normal" in="SourceGraphic" in2="effect1_dropShadow_569_748" result="shape"/>
</filter>
<filter id="filter1_b_569_748" x="-40" y="-68" width="370.508" height="382" filterUnits="userSpaceOnUse" color-interpolation-filters="sRGB">
<feFlood flood-opacity="0" result="BackgroundImageFix"/>
<feGaussianBlur in="BackgroundImageFix" stdDeviation="10"/>
<feComposite in2="SourceAlpha" operator="in" result="effect1_backgroundBlur_569_748"/>
<feBlend mode="normal" in="SourceGraphic" in2="effect1_backgroundBlur_569_748" result="shape"/>
</filter>
<radialGradient id="paint0_diamond_569_748" cx="0" cy="0" r="1" gradientUnits="userSpaceOnUse" gradientTransform="translate(1084.5 1147.32) rotate(90) scale(2296.32 1360.5)">
<stop stop-color="#EFEFEF"/>
<stop offset="0.111528" stop-color="#ABA4C9"/>
<stop offset="0.247152" stop-color="#7466AA"/>
<stop offset="0.290305" stop-color="#6354A1"/>
<stop offset="0.351953" stop-color="#534298"/>
<stop offset="0.435177" stop-color="#422F8E"/>
<stop offset="0.502989" stop-color="#382680" stop-opacity="0.958228"/>
<stop offset="0.607789" stop-color="#29186C" stop-opacity="0.65"/>
<stop offset="1" stop-color="#130938" stop-opacity="0"/>
</radialGradient>
<radialGradient id="paint1_diamond_569_748" cx="0" cy="0" r="1" gradientUnits="userSpaceOnUse" gradientTransform="translate(1088.59 1154.91) rotate(90) scale(1768.83 1047.98)">
<stop stop-color="#EFEFEF"/>
<stop offset="0.111528" stop-color="#ABA4C9"/>
<stop offset="0.247152" stop-color="#7466AA"/>
<stop offset="0.290305" stop-color="#6354A1"/>
<stop offset="0.351953" stop-color="#534298"/>
<stop offset="0.435177" stop-color="#422F8E"/>
<stop offset="0.502989" stop-color="#382680" stop-opacity="0.958228"/>
<stop offset="0.607789" stop-color="#29186C" stop-opacity="0.65"/>
<stop offset="1" stop-color="#130938" stop-opacity="0"/>
</radialGradient>
<linearGradient id="paint2_linear_569_748" x1="-34.0046" y1="-150.836" x2="140.532" y2="295.845" gradientUnits="userSpaceOnUse">
<stop stop-color="#868282"/>
<stop offset="1" stop-color="#282828"/>
</linearGradient>
<clipPath id="clip0_569_748">
<rect width="1920" height="6845" fill="white" transform="translate(-298 -1233)"/>
</clipPath>
</defs>
</svg>
