<svg width="41" height="35" viewBox="0 0 41 35" fill="none" xmlns="http://www.w3.org/2000/svg">
<rect width="41" height="35" fill="#1E1E1E"/>
<g id="Email Landing" clip-path="url(#clip0_569_748)">
<rect id="Rectangle 4433" x="-1346" y="-1229" width="1920" height="6845" fill="#0B0C0D"/>
<g id="Group 1597880408">
<path id="Rectangle 4434" d="M-1324 -1145H1397V3447.64H-1324V-1145Z" fill="url(#paint0_diamond_569_748)" fill-opacity="0.1"/>
<path id="Rectangle 4441" d="M-1007.39 -609.913H1088.57V2927.74H-1007.39V-609.913Z" fill="url(#paint1_diamond_569_748)" fill-opacity="0.1"/>
</g>
<g id="Group 1597880425">
</g>
<g id="Group 1597880675">
<g id="Group 1597880673" filter="url(#filter0_d_569_748)">
</g>
<g id="Group 1597880674" filter="url(#filter1_d_569_748)">
<g id="Group 1597880624">
<g id="Rectangle 5446" filter="url(#filter2_b_569_748)">
<rect x="-34.5077" y="-44" width="330.508" height="342" rx="50" fill="#3E3E3E" fill-opacity="0.26"/>
<rect x="-34.0077" y="-43.5" width="329.508" height="341" rx="49.5" stroke="url(#paint2_linear_569_748)"/>
</g>
</g>
</g>
<g id="Sound">
<g id="Group">
<path id="Vector" d="M40.9998 19.0916H36.8998V22.9099H40.9998V19.0916Z" fill="white"/>
<path id="Vector_2" d="M40.9998 15.2732H36.8998V19.0915H40.9998V15.2732Z" fill="white"/>
<path id="Vector_3" d="M40.9998 11.4548H36.8998V15.2731H40.9998V11.4548Z" fill="white"/>
<path id="Vector_4" d="M36.9002 22.9099H32.8002V26.7282H36.9002V22.9099Z" fill="white"/>
<path id="Vector_5" d="M36.9002 7.63672H32.8002V11.455H36.9002V7.63672Z" fill="white"/>
<path id="Vector_6" d="M32.7997 26.7283H28.6997V30.5466H32.7997V26.7283Z" fill="white"/>
<path id="Vector_7" d="M32.7997 15.2732H28.6997V19.0915H32.7997V15.2732Z" fill="white"/>
<path id="Vector_8" d="M32.7997 3.81836H28.6997V7.63667H32.7997V3.81836Z" fill="white"/>
<path id="Vector_9" d="M28.7001 19.0916H24.6001V22.9099H28.7001V19.0916Z" fill="white"/>
<path id="Vector_10" d="M28.7001 11.4548H24.6001V15.2731H28.7001V11.4548Z" fill="white"/>
<path id="Vector_11" d="M20.5001 30.5466H16.4001V34.3649H20.5001V30.5466Z" fill="white"/>
<path id="Vector_12" d="M20.5001 26.7283H16.4001V30.5466H20.5001V26.7283Z" fill="white"/>
<path id="Vector_13" d="M20.5001 22.9099H16.4001V26.7282H20.5001V22.9099Z" fill="white"/>
<path id="Vector_14" d="M20.5001 19.0916H16.4001V22.9099H20.5001V19.0916Z" fill="white"/>
<path id="Vector_15" d="M20.5001 15.2732H16.4001V19.0915H20.5001V15.2732Z" fill="white"/>
<path id="Vector_16" d="M20.5001 11.4548H16.4001V15.2731H20.5001V11.4548Z" fill="white"/>
<path id="Vector_17" d="M20.5001 7.63672H16.4001V11.455H20.5001V7.63672Z" fill="white"/>
<path id="Vector_18" d="M20.5001 3.81836H16.4001V7.63667H20.5001V3.81836Z" fill="white"/>
<path id="Vector_19" d="M20.5001 0H16.4001V3.81831H20.5001V0Z" fill="white"/>
<path id="Vector_20" d="M16.4001 26.7283H12.3001V30.5466H16.4001V26.7283Z" fill="white"/>
<path id="Vector_21" d="M16.4001 3.81836H12.3001V7.63667H16.4001V3.81836Z" fill="white"/>
<path id="Vector_22" d="M12.2996 22.9099H8.19962V26.7282H12.2996V22.9099Z" fill="white"/>
<path id="Vector_23" d="M12.2996 7.63672H8.19962V11.455H12.2996V7.63672Z" fill="white"/>
<path id="Vector_24" d="M8.20043 19.0916H4.10043V22.9099H8.20043V19.0916Z" fill="white"/>
<path id="Vector_25" d="M8.20043 11.4548H4.10043V15.2731H8.20043V11.4548Z" fill="white"/>
<path id="Vector_26" d="M4.1 19.0916H0V22.9099H4.1V19.0916Z" fill="white"/>
<path id="Vector_27" d="M4.1 15.2732H0V19.0915H4.1V15.2732Z" fill="white"/>
<path id="Vector_28" d="M4.1 11.4548H0V15.2731H4.1V11.4548Z" fill="white"/>
</g>
</g>
</g>
</g>
<defs>
<filter id="filter0_d_569_748" x="-404.005" y="-69" width="430.508" height="442" filterUnits="userSpaceOnUse" color-interpolation-filters="sRGB">
<feFlood flood-opacity="0" result="BackgroundImageFix"/>
<feColorMatrix in="SourceAlpha" type="matrix" values="0 0 0 0 0 0 0 0 0 0 0 0 0 0 0 0 0 0 127 0" result="hardAlpha"/>
<feOffset dx="25" dy="25"/>
<feGaussianBlur stdDeviation="25"/>
<feComposite in2="hardAlpha" operator="out"/>
<feColorMatrix type="matrix" values="0 0 0 0 0 0 0 0 0 0 0 0 0 0 0 0 0 0 0.5 0"/>
<feBlend mode="normal" in2="BackgroundImageFix" result="effect1_dropShadow_569_748"/>
<feBlend mode="normal" in="SourceGraphic" in2="effect1_dropShadow_569_748" result="shape"/>
</filter>
<filter id="filter1_d_569_748" x="-59.5077" y="-69" width="430.508" height="442" filterUnits="userSpaceOnUse" color-interpolation-filters="sRGB">
<feFlood flood-opacity="0" result="BackgroundImageFix"/>
<feColorMatrix in="SourceAlpha" type="matrix" values="0 0 0 0 0 0 0 0 0 0 0 0 0 0 0 0 0 0 127 0" result="hardAlpha"/>
<feOffset dx="25" dy="25"/>
<feGaussianBlur stdDeviation="25"/>
<feComposite in2="hardAlpha" operator="out"/>
<feColorMatrix type="matrix" values="0 0 0 0 0 0 0 0 0 0 0 0 0 0 0 0 0 0 0.5 0"/>
<feBlend mode="normal" in2="BackgroundImageFix" result="effect1_dropShadow_569_748"/>
<feBlend mode="normal" in="SourceGraphic" in2="effect1_dropShadow_569_748" result="shape"/>
</filter>
<filter id="filter2_b_569_748" x="-54.5077" y="-64" width="370.508" height="382" filterUnits="userSpaceOnUse" color-interpolation-filters="sRGB">
<feFlood flood-opacity="0" result="BackgroundImageFix"/>
<feGaussianBlur in="BackgroundImageFix" stdDeviation="10"/>
<feComposite in2="SourceAlpha" operator="in" result="effect1_backgroundBlur_569_748"/>
<feBlend mode="normal" in="SourceGraphic" in2="effect1_backgroundBlur_569_748" result="shape"/>
</filter>
<radialGradient id="paint0_diamond_569_748" cx="0" cy="0" r="1" gradientUnits="userSpaceOnUse" gradientTransform="translate(36.5 1151.32) rotate(90) scale(2296.32 1360.5)">
<stop stop-color="#EFEFEF"/>
<stop offset="0.111528" stop-color="#ABA4C9"/>
<stop offset="0.247152" stop-color="#7466AA"/>
<stop offset="0.290305" stop-color="#6354A1"/>
<stop offset="0.351953" stop-color="#534298"/>
<stop offset="0.435177" stop-color="#422F8E"/>
<stop offset="0.502989" stop-color="#382680" stop-opacity="0.958228"/>
<stop offset="0.607789" stop-color="#29186C" stop-opacity="0.65"/>
<stop offset="1" stop-color="#130938" stop-opacity="0"/>
</radialGradient>
<radialGradient id="paint1_diamond_569_748" cx="0" cy="0" r="1" gradientUnits="userSpaceOnUse" gradientTransform="translate(40.5894 1158.91) rotate(90) scale(1768.83 1047.98)">
<stop stop-color="#EFEFEF"/>
<stop offset="0.111528" stop-color="#ABA4C9"/>
<stop offset="0.247152" stop-color="#7466AA"/>
<stop offset="0.290305" stop-color="#6354A1"/>
<stop offset="0.351953" stop-color="#534298"/>
<stop offset="0.435177" stop-color="#422F8E"/>
<stop offset="0.502989" stop-color="#382680" stop-opacity="0.958228"/>
<stop offset="0.607789" stop-color="#29186C" stop-opacity="0.65"/>
<stop offset="1" stop-color="#130938" stop-opacity="0"/>
</radialGradient>
<linearGradient id="paint2_linear_569_748" x1="-48.5123" y1="-146.836" x2="126.024" y2="299.845" gradientUnits="userSpaceOnUse">
<stop stop-color="#868282"/>
<stop offset="1" stop-color="#282828"/>
</linearGradient>
<clipPath id="clip0_569_748">
<rect width="1920" height="6845" fill="white" transform="translate(-1346 -1229)"/>
</clipPath>
</defs>
</svg>
