<svg width="46" height="33" viewBox="0 0 46 33" fill="none" xmlns="http://www.w3.org/2000/svg">
<path d="M46.0001 16.4768H42.4617V19.7722H46.0001V16.4768Z" fill="white"/>
<path d="M46.0001 13.1814H42.4617V16.4767H46.0001V13.1814Z" fill="white"/>
<path d="M38.9227 19.7722H35.3843V23.0676H38.9227V19.7722Z" fill="white"/>
<path d="M38.9227 16.4768H35.3843V19.7722H38.9227V16.4768Z" fill="white"/>
<path d="M38.9227 13.1814H35.3843V16.4767H38.9227V13.1814Z" fill="white"/>
<path d="M38.9227 9.88623H35.3843V13.1816H38.9227V9.88623Z" fill="white"/>
<path d="M31.8462 26.3628H28.3078V29.6581H31.8462V26.3628Z" fill="white"/>
<path d="M31.8462 23.0674H28.3078V26.3627H31.8462V23.0674Z" fill="white"/>
<path d="M31.8462 19.7722H28.3078V23.0676H31.8462V19.7722Z" fill="white"/>
<path d="M31.8462 16.4768H28.3078V19.7722H31.8462V16.4768Z" fill="white"/>
<path d="M31.8462 13.1814H28.3078V16.4767H31.8462V13.1814Z" fill="white"/>
<path d="M31.8462 9.88623H28.3078V13.1816H31.8462V9.88623Z" fill="white"/>
<path d="M31.8462 6.59058H28.3078V9.88593H31.8462V6.59058Z" fill="white"/>
<path d="M31.8462 3.29541H28.3078V6.59076H31.8462V3.29541Z" fill="white"/>
<path d="M24.7688 29.6582H21.2304V32.9536H24.7688V29.6582Z" fill="white"/>
<path d="M24.7688 26.3628H21.2304V29.6581H24.7688V26.3628Z" fill="white"/>
<path d="M24.7688 23.0674H21.2304V26.3627H24.7688V23.0674Z" fill="white"/>
<path d="M24.7688 19.7722H21.2304V23.0676H24.7688V19.7722Z" fill="white"/>
<path d="M24.7688 16.4768H21.2304V19.7722H24.7688V16.4768Z" fill="white"/>
<path d="M24.7688 13.1814H21.2304V16.4767H24.7688V13.1814Z" fill="white"/>
<path d="M24.7688 9.88623H21.2304V13.1816H24.7688V9.88623Z" fill="white"/>
<path d="M24.7688 6.59058H21.2304V9.88593H24.7688V6.59058Z" fill="white"/>
<path d="M24.7688 3.29541H21.2304V6.59076H24.7688V3.29541Z" fill="white"/>
<path d="M24.7688 0H21.2304V3.29535H24.7688V0Z" fill="white"/>
<path d="M17.6924 23.0674H14.1539V26.3627H17.6924V23.0674Z" fill="white"/>
<path d="M17.6924 19.7722H14.1539V23.0676H17.6924V19.7722Z" fill="white"/>
<path d="M17.6924 16.4768H14.1539V19.7722H17.6924V16.4768Z" fill="white"/>
<path d="M17.6924 13.1814H14.1539V16.4767H17.6924V13.1814Z" fill="white"/>
<path d="M17.6924 9.88623H14.1539V13.1816H17.6924V9.88623Z" fill="white"/>
<path d="M17.6924 6.59058H14.1539V9.88593H17.6924V6.59058Z" fill="white"/>
<path d="M10.615 26.3628H7.07649V29.6581H10.615V26.3628Z" fill="white"/>
<path d="M10.615 23.0674H7.07649V26.3627H10.615V23.0674Z" fill="white"/>
<path d="M10.615 19.7722H7.07649V23.0676H10.615V19.7722Z" fill="white"/>
<path d="M10.615 16.4768H7.07649V19.7722H10.615V16.4768Z" fill="white"/>
<path d="M10.615 13.1814H7.07649V16.4767H10.615V13.1814Z" fill="white"/>
<path d="M10.615 9.88623H7.07649V13.1816H10.615V9.88623Z" fill="white"/>
<path d="M10.615 6.59058H7.07649V9.88593H10.615V6.59058Z" fill="white"/>
<path d="M10.615 3.29541H7.07649V6.59076H10.615V3.29541Z" fill="white"/>
<path d="M3.53846 19.7722H0V23.0676H3.53846V19.7722Z" fill="white"/>
<path d="M3.53846 16.4768H0V19.7722H3.53846V16.4768Z" fill="white"/>
<path d="M3.53846 13.1814H0V16.4767H3.53846V13.1814Z" fill="white"/>
<path d="M3.53846 9.88623H0V13.1816H3.53846V9.88623Z" fill="white"/>
</svg>
