<svg width="36" height="33" viewBox="0 0 36 33" fill="none" xmlns="http://www.w3.org/2000/svg">
<g clip-path="url(#clip0_586_2284)">
<path d="M36 30H33V33H36V30Z" fill="white"/>
<path d="M36 27H33V30H36V27Z" fill="white"/>
<path d="M36 24H33V27H36V24Z" fill="white"/>
<path d="M36 21H33V24H36V21Z" fill="white"/>
<path d="M36 18H33V21H36V18Z" fill="white"/>
<path d="M36 15H33V18H36V15Z" fill="white"/>
<path d="M36 12H33V15H36V12Z" fill="white"/>
<path d="M36 9H33V12H36V9Z" fill="white"/>
<path d="M36 6H33V9H36V6Z" fill="white"/>
<path d="M36 3H33V6H36V3Z" fill="white"/>
<path d="M36 0H33V3H36V0Z" fill="white"/>
<path d="M33 30H30V33H33V30Z" fill="white"/>
<path d="M33 15H30V18H33V15Z" fill="white"/>
<path d="M33 0H30V3H33V0Z" fill="white"/>
<path d="M30 30H27V33H30V30Z" fill="white"/>
<path d="M30 18H27V21H30V18Z" fill="white"/>
<path d="M30 0H27V3H30V0Z" fill="white"/>
<path d="M27 30H24V33H27V30Z" fill="white"/>
<path d="M27 21H24V24H27V21Z" fill="white"/>
<path d="M27 12H24V15H27V12Z" fill="white"/>
<path d="M27 9H24V12H27V9Z" fill="white"/>
<path d="M27 0H24V3H27V0Z" fill="white"/>
<path d="M24 30H21V33H24V30Z" fill="white"/>
<path d="M24 21H21V24H24V21Z" fill="white"/>
<path d="M24 12H21V15H24V12Z" fill="white"/>
<path d="M24 9H21V12H24V9Z" fill="white"/>
<path d="M24 0H21V3H24V0Z" fill="white"/>
<path d="M21 30H18V33H21V30Z" fill="white"/>
<path d="M21 18H18V21H21V18Z" fill="white"/>
<path d="M21 0H18V3H21V0Z" fill="white"/>
<path d="M18 30H15V33H18V30Z" fill="white"/>
<path d="M18 15H15V18H18V15Z" fill="white"/>
<path d="M18 0H15V3H18V0Z" fill="white"/>
<path d="M15 30H12V33H15V30Z" fill="white"/>
<path d="M15 12H12V15H15V12Z" fill="white"/>
<path d="M15 0H12V3H15V0Z" fill="white"/>
<path d="M12 30H9V33H12V30Z" fill="white"/>
<path d="M12 9H9V12H12V9Z" fill="white"/>
<path d="M12 0H9V3H12V0Z" fill="white"/>
<path d="M9 30H6V33H9V30Z" fill="white"/>
<path d="M9 12H6V15H9V12Z" fill="white"/>
<path d="M9 0H6V3H9V0Z" fill="white"/>
<path d="M6 30H3V33H6V30Z" fill="white"/>
<path d="M6 15H3V18H6V15Z" fill="white"/>
<path d="M6 0H3V3H6V0Z" fill="white"/>
<path d="M3 30H0V33H3V30Z" fill="white"/>
<path d="M3 27H0V30H3V27Z" fill="white"/>
<path d="M3 24H0V27H3V24Z" fill="white"/>
<path d="M3 21H0V24H3V21Z" fill="white"/>
<path d="M3 18H0V21H3V18Z" fill="white"/>
<path d="M3 15H0V18H3V15Z" fill="white"/>
<path d="M3 12H0V15H3V12Z" fill="white"/>
<path d="M3 9H0V12H3V9Z" fill="white"/>
<path d="M3 6H0V9H3V6Z" fill="white"/>
<path d="M3 3H0V6H3V3Z" fill="white"/>
<path d="M3 0H0V3H3V0Z" fill="white"/>
</g>
<defs>
<clipPath id="clip0_586_2284">
<rect width="36" height="33" fill="white"/>
</clipPath>
</defs>
</svg>
